<svg viewBox="0 0 814.3333740234375 400" xmlns="http://www.w3.org/2000/svg"><g><g><g><g><g><line x1="41.0620002746582" y1="378.0399990081787" x2="36.0620002746582" y2="378.0399990081787" style="visibility: inherit;" fill="rgb(0, 0, 0)" stroke="rgb(204, 204, 204)" stroke-width="1px"></line><line x1="41.0620002746582" y1="352.8373324076335" x2="36.0620002746582" y2="352.8373324076335" style="visibility: inherit;" fill="rgb(0, 0, 0)" stroke="rgb(204, 204, 204)" stroke-width="1px"></line><line x1="41.0620002746582" y1="327.6346658070882" x2="36.0620002746582" y2="327.6346658070882" style="visibility: inherit;" fill="rgb(0, 0, 0)" stroke="rgb(204, 204, 204)" stroke-width="1px"></line><line x1="41.0620002746582" y1="302.43199920654297" x2="36.0620002746582" y2="302.43199920654297" style="visibility: inherit;" fill="rgb(0, 0, 0)" stroke="rgb(204, 204, 204)" stroke-width="1px"></line><line x1="41.0620002746582" y1="277.22933260599774" x2="36.0620002746582" y2="277.22933260599774" style="visibility: inherit;" fill="rgb(0, 0, 0)" stroke="rgb(204, 204, 204)" stroke-width="1px"></line><line x1="41.0620002746582" y1="252.02666600545248" x2="36.0620002746582" y2="252.02666600545248" style="visibility: inherit;" fill="rgb(0, 0, 0)" stroke="rgb(204, 204, 204)" stroke-width="1px"></line><line x1="41.0620002746582" y1="226.82399940490723" x2="36.0620002746582" y2="226.82399940490723" style="visibility: inherit;" fill="rgb(0, 0, 0)" stroke="rgb(204, 204, 204)" stroke-width="1px"></line><line x1="41.0620002746582" y1="201.62133280436197" x2="36.0620002746582" y2="201.62133280436197" style="visibility: inherit;" fill="rgb(0, 0, 0)" stroke="rgb(204, 204, 204)" stroke-width="1px"></line><line x1="41.0620002746582" y1="176.41866620381674" x2="36.0620002746582" y2="176.41866620381674" style="visibility: inherit;" fill="rgb(0, 0, 0)" stroke="rgb(204, 204, 204)" stroke-width="1px"></line><line x1="41.0620002746582" y1="151.21599960327148" x2="36.0620002746582" y2="151.21599960327148" style="visibility: inherit;" fill="rgb(0, 0, 0)" stroke="rgb(204, 204, 204)" stroke-width="1px"></line><line x1="41.0620002746582" y1="126.01333300272626" x2="36.0620002746582" y2="126.01333300272626" style="visibility: inherit;" fill="rgb(0, 0, 0)" stroke="rgb(204, 204, 204)" stroke-width="1px"></line><line x1="41.0620002746582" y1="100.81066640218103" x2="36.0620002746582" y2="100.81066640218103" style="visibility: inherit;" fill="rgb(0, 0, 0)" stroke="rgb(204, 204, 204)" stroke-width="1px"></line><line x1="41.0620002746582" y1="75.60799980163574" x2="36.0620002746582" y2="75.60799980163574" style="visibility: inherit;" fill="rgb(0, 0, 0)" stroke="rgb(204, 204, 204)" stroke-width="1px"></line><line x1="41.0620002746582" y1="50.40533320109046" x2="36.0620002746582" y2="50.40533320109046" style="visibility: inherit;" fill="rgb(0, 0, 0)" stroke="rgb(204, 204, 204)" stroke-width="1px"></line><line x1="41.0620002746582" y1="25.20266660054523" x2="36.0620002746582" y2="25.20266660054523" style="visibility: inherit;" fill="rgb(0, 0, 0)" stroke="rgb(204, 204, 204)" stroke-width="1px"></line><line x1="41.0620002746582" y1="0" x2="36.0620002746582" y2="0" style="visibility: inherit;" fill="rgb(0, 0, 0)" stroke="rgb(204, 204, 204)" stroke-width="1px"></line></g><g transform="translate(31.062000274658203, 0)"><text style="text-anchor: end; visibility: hidden; font-family: &quot;Helvetica Neue&quot;, sans-serif; font-size: 12px; font-weight: 200;" x="0" y="378.0399990081787" dx="0em" dy="0.3em" fill="rgb(50, 49, 63)" stroke="none" stroke-width="1px">-20</text><text style="text-anchor: end; visibility: inherit; font-family: &quot;Helvetica Neue&quot;, sans-serif; font-size: 12px; font-weight: 200;" x="0" y="352.8373324076335" dx="0em" dy="0.3em" fill="rgb(50, 49, 63)" stroke="none" stroke-width="1px">-18</text><text style="text-anchor: end; visibility: inherit; font-family: &quot;Helvetica Neue&quot;, sans-serif; font-size: 12px; font-weight: 200;" x="0" y="327.6346658070882" dx="0em" dy="0.3em" fill="rgb(50, 49, 63)" stroke="none" stroke-width="1px">-16</text><text style="text-anchor: end; visibility: inherit; font-family: &quot;Helvetica Neue&quot;, sans-serif; font-size: 12px; font-weight: 200;" x="0" y="302.43199920654297" dx="0em" dy="0.3em" fill="rgb(50, 49, 63)" stroke="none" stroke-width="1px">-14</text><text style="text-anchor: end; visibility: inherit; font-family: &quot;Helvetica Neue&quot;, sans-serif; font-size: 12px; font-weight: 200;" x="0" y="277.22933260599774" dx="0em" dy="0.3em" fill="rgb(50, 49, 63)" stroke="none" stroke-width="1px">-12</text><text style="text-anchor: end; visibility: inherit; font-family: &quot;Helvetica Neue&quot;, sans-serif; font-size: 12px; font-weight: 200;" x="0" y="252.02666600545248" dx="0em" dy="0.3em" fill="rgb(50, 49, 63)" stroke="none" stroke-width="1px">-10</text><text style="text-anchor: end; visibility: inherit; font-family: &quot;Helvetica Neue&quot;, sans-serif; font-size: 12px; font-weight: 200;" x="0" y="226.82399940490723" dx="0em" dy="0.3em" fill="rgb(50, 49, 63)" stroke="none" stroke-width="1px">-8</text><text style="text-anchor: end; visibility: inherit; font-family: &quot;Helvetica Neue&quot;, sans-serif; font-size: 12px; font-weight: 200;" x="0" y="201.62133280436197" dx="0em" dy="0.3em" fill="rgb(50, 49, 63)" stroke="none" stroke-width="1px">-6</text><text style="text-anchor: end; visibility: inherit; font-family: &quot;Helvetica Neue&quot;, sans-serif; font-size: 12px; font-weight: 200;" x="0" y="176.41866620381674" dx="0em" dy="0.3em" fill="rgb(50, 49, 63)" stroke="none" stroke-width="1px">-4</text><text style="text-anchor: end; visibility: inherit; font-family: &quot;Helvetica Neue&quot;, sans-serif; font-size: 12px; font-weight: 200;" x="0" y="151.21599960327148" dx="0em" dy="0.3em" fill="rgb(50, 49, 63)" stroke="none" stroke-width="1px">-2</text><text style="text-anchor: end; visibility: inherit; font-family: &quot;Helvetica Neue&quot;, sans-serif; font-size: 12px; font-weight: 200;" x="0" y="126.01333300272626" dx="0em" dy="0.3em" fill="rgb(50, 49, 63)" stroke="none" stroke-width="1px">0</text><text style="text-anchor: end; visibility: inherit; font-family: &quot;Helvetica Neue&quot;, sans-serif; font-size: 12px; font-weight: 200;" x="0" y="100.81066640218103" dx="0em" dy="0.3em" fill="rgb(50, 49, 63)" stroke="none" stroke-width="1px">2</text><text style="text-anchor: end; visibility: inherit; font-family: &quot;Helvetica Neue&quot;, sans-serif; font-size: 12px; font-weight: 200;" x="0" y="75.60799980163574" dx="0em" dy="0.3em" fill="rgb(50, 49, 63)" stroke="none" stroke-width="1px">4</text><text style="text-anchor: end; visibility: inherit; font-family: &quot;Helvetica Neue&quot;, sans-serif; font-size: 12px; font-weight: 200;" x="0" y="50.40533320109046" dx="0em" dy="0.3em" fill="rgb(50, 49, 63)" stroke="none" stroke-width="1px">6</text><text style="text-anchor: end; visibility: inherit; font-family: &quot;Helvetica Neue&quot;, sans-serif; font-size: 12px; font-weight: 200;" x="0" y="25.20266660054523" dx="0em" dy="0.3em" fill="rgb(50, 49, 63)" stroke="none" stroke-width="1px">8</text><text style="text-anchor: end; visibility: hidden; font-family: &quot;Helvetica Neue&quot;, sans-serif; font-size: 12px; font-weight: 200;" x="0" y="0" dx="0em" dy="0.3em" fill="rgb(50, 49, 63)" stroke="none" stroke-width="1px">10</text></g><line x1="41.0620002746582" y1="0" x2="41.0620002746582" y2="378.0399990081787" fill="rgb(0, 0, 0)" stroke="rgb(204, 204, 204)" stroke-width="1px"></line></g></g><g transform="translate(41, 0)" clip-path="url(#clip_0)"><clipPath id="clip_0"><rect width="773" height="378"></rect></clipPath><g><g><g><line x1="0" y1="0" x2="0" y2="378.0399990081787" fill="rgb(0, 0, 0)" stroke="rgb(60, 60, 60)" stroke-width="1px" opacity="0.25"></line><line x1="70.29736361139472" y1="0" x2="70.29736361139472" y2="378.0399990081787" fill="rgb(0, 0, 0)" stroke="rgb(60, 60, 60)" stroke-width="1px" opacity="0.25"></line><line x1="140.59472722278943" y1="0" x2="140.59472722278943" y2="378.0399990081787" fill="rgb(0, 0, 0)" stroke="rgb(60, 60, 60)" stroke-width="1px" opacity="0.25"></line><line x1="210.8920908341841" y1="0" x2="210.8920908341841" y2="378.0399990081787" fill="rgb(0, 0, 0)" stroke="rgb(60, 60, 60)" stroke-width="1px" opacity="0.25"></line><line x1="281.18945444557886" y1="0" x2="281.18945444557886" y2="378.0399990081787" fill="rgb(0, 0, 0)" stroke="rgb(60, 60, 60)" stroke-width="1px" opacity="0.25"></line><line x1="351.4868180569735" y1="0" x2="351.4868180569735" y2="378.0399990081787" fill="rgb(0, 0, 0)" stroke="rgb(60, 60, 60)" stroke-width="1px" opacity="0.25"></line><line x1="421.7841816683682" y1="0" x2="421.7841816683682" y2="378.0399990081787" fill="rgb(0, 0, 0)" stroke="rgb(60, 60, 60)" stroke-width="1px" opacity="0.25"></line><line x1="492.0815452797629" y1="0" x2="492.0815452797629" y2="378.0399990081787" fill="rgb(0, 0, 0)" stroke="rgb(60, 60, 60)" stroke-width="1px" opacity="0.25"></line><line x1="562.3789088911577" y1="0" x2="562.3789088911577" y2="378.0399990081787" fill="rgb(0, 0, 0)" stroke="rgb(60, 60, 60)" stroke-width="1px" opacity="0.25"></line><line x1="632.6762725025524" y1="0" x2="632.6762725025524" y2="378.0399990081787" fill="rgb(0, 0, 0)" stroke="rgb(60, 60, 60)" stroke-width="1px" opacity="0.25"></line><line x1="702.973636113947" y1="0" x2="702.973636113947" y2="378.0399990081787" fill="rgb(0, 0, 0)" stroke="rgb(60, 60, 60)" stroke-width="1px" opacity="0.25"></line><line x1="773.2709997253418" y1="0" x2="773.2709997253418" y2="378.0399990081787" fill="rgb(0, 0, 0)" stroke="rgb(60, 60, 60)" stroke-width="1px" opacity="0.25"></line></g><g><line x1="0" y1="378.0399990081787" x2="773.2709997253418" y2="378.0399990081787" fill="rgb(0, 0, 0)" stroke="rgb(60, 60, 60)" stroke-width="1px" opacity="0.25"></line><line x1="0" y1="352.8373324076335" x2="773.2709997253418" y2="352.8373324076335" fill="rgb(0, 0, 0)" stroke="rgb(60, 60, 60)" stroke-width="1px" opacity="0.25"></line><line x1="0" y1="327.6346658070882" x2="773.2709997253418" y2="327.6346658070882" fill="rgb(0, 0, 0)" stroke="rgb(60, 60, 60)" stroke-width="1px" opacity="0.25"></line><line x1="0" y1="302.43199920654297" x2="773.2709997253418" y2="302.43199920654297" fill="rgb(0, 0, 0)" stroke="rgb(60, 60, 60)" stroke-width="1px" opacity="0.25"></line><line x1="0" y1="277.22933260599774" x2="773.2709997253418" y2="277.22933260599774" fill="rgb(0, 0, 0)" stroke="rgb(60, 60, 60)" stroke-width="1px" opacity="0.25"></line><line x1="0" y1="252.02666600545248" x2="773.2709997253418" y2="252.02666600545248" fill="rgb(0, 0, 0)" stroke="rgb(60, 60, 60)" stroke-width="1px" opacity="0.25"></line><line x1="0" y1="226.82399940490723" x2="773.2709997253418" y2="226.82399940490723" fill="rgb(0, 0, 0)" stroke="rgb(60, 60, 60)" stroke-width="1px" opacity="0.25"></line><line x1="0" y1="201.62133280436197" x2="773.2709997253418" y2="201.62133280436197" fill="rgb(0, 0, 0)" stroke="rgb(60, 60, 60)" stroke-width="1px" opacity="0.25"></line><line x1="0" y1="176.41866620381674" x2="773.2709997253418" y2="176.41866620381674" fill="rgb(0, 0, 0)" stroke="rgb(60, 60, 60)" stroke-width="1px" opacity="0.25"></line><line x1="0" y1="151.21599960327148" x2="773.2709997253418" y2="151.21599960327148" fill="rgb(0, 0, 0)" stroke="rgb(60, 60, 60)" stroke-width="1px" opacity="0.25"></line><line x1="0" y1="126.01333300272626" x2="773.2709997253418" y2="126.01333300272626" fill="rgb(0, 0, 0)" stroke="rgb(60, 60, 60)" stroke-width="1px" opacity="0.25"></line><line x1="0" y1="100.81066640218103" x2="773.2709997253418" y2="100.81066640218103" fill="rgb(0, 0, 0)" stroke="rgb(60, 60, 60)" stroke-width="1px" opacity="0.25"></line><line x1="0" y1="75.60799980163574" x2="773.2709997253418" y2="75.60799980163574" fill="rgb(0, 0, 0)" stroke="rgb(60, 60, 60)" stroke-width="1px" opacity="0.25"></line><line x1="0" y1="50.40533320109046" x2="773.2709997253418" y2="50.40533320109046" fill="rgb(0, 0, 0)" stroke="rgb(60, 60, 60)" stroke-width="1px" opacity="0.25"></line><line x1="0" y1="25.20266660054523" x2="773.2709997253418" y2="25.20266660054523" fill="rgb(0, 0, 0)" stroke="rgb(60, 60, 60)" stroke-width="1px" opacity="0.25"></line><line x1="0" y1="0" x2="773.2709997253418" y2="0" fill="rgb(0, 0, 0)" stroke="rgb(60, 60, 60)" stroke-width="1px" opacity="0.25"></line></g></g></g><g><g><line x1="0" y1="126.01333300272626" x2="773.2709997253418" y2="126.01333300272626" fill="rgb(0, 0, 0)" stroke="rgb(153, 153, 153)" stroke-width="1.5px"></line></g></g><g><g><line x1="70.29736361139472" y1="0" x2="70.29736361139472" y2="378.0399990081787" fill="rgb(0, 0, 0)" stroke="rgb(153, 153, 153)" stroke-width="1.5px"></line></g></g><g><g><g><g><g><path style="fill: none;" stroke="rgb(238, 51, 119)" stroke-width="2px" d="M70.33251229320041,65.33051562780417L73.81223179196445,159.01201823859492L77.32709997253419,144.61601589551617L80.8419681531039,143.23138777236866L84.35683633367364,138.14533370761026L87.87170451424338,134.70355858740132L91.38657269481311,139.14040936220835L94.90144087538285,136.01208020400347L98.41630905595258,135.05875658475472L101.93117723652232,134.4131660761596L105.44604541709205,134.49329396137048L108.96091359766179,131.9306538825953L112.47578177823152,133.1624467079632L115.99064995880126,132.48150351893668L119.50551813937099,131.6835520309458L123.02038631994073,133.8711422168092L126.53525450051048,132.90106235238866L130.0501226810802,132.00725874266038L133.56499086164993,129.56854833087394L137.07985904221968,129.57043809342952L140.59472722278943,130.38955514737214L144.10959540335915,131.5339246727031L147.6244635839289,131.68465501835158L151.13933176449862,127.90421976421894L154.65419994506837,131.38563013785267L158.1690681256381,130.83197777934274L161.6839363062078,131.64516529016336L165.19880448677756,147.69077374032148L168.71367266734728,170.08491518919408L172.22854084791703,154.18773384268252L175.74340902848675,146.27153201716968L179.2582772090565,142.10988730324226L182.77314538962622,137.5349396510636L186.28801357019597,141.38690140394223L189.8028817507657,134.37847736635578L193.31774993133544,135.20924357465276L196.83261811190516,136.78328133690027L200.3474862924749,134.52716172106568L203.86235447304463,135.09744864687218L207.37722265361438,133.82959898670248L210.8920908341841,131.67063502317578L214.40695901475385,133.97245181657877L217.92182719532357,134.2333066480668L221.43669537589332,134.70071192600003L224.95156355646304,136.73239144334303L228.46643173703282,134.6828981348512L231.9812999176025,135.19488633647723L235.4961680981723,136.20690300635385L239.01103627874198,135.92291736101L242.52590445931176,137.1281374659597L246.04077263988145,137.52216572746167L249.55564082045123,135.03437143724713L253.07050900102095,134.53047256102792L256.5853771815907,135.84296898821992L260.1002453621604,133.76290599132923L263.6151135427301,133.21169169691123L267.12998172329986,133.79431390509058L270.6448499038696,137.433336371978L274.15971808443936,136.20418027612178L277.67458626500905,132.39856427393025L281.18945444557886,132.71489370113733L284.70432262614855,135.88343289050772L288.2191908067183,134.61079197622755L291.734058987288,134.24030462808673L295.2489271678578,133.94289611047316L298.7637953484275,136.48363604945743L302.27866352899724,134.26075702649217L305.793531709567,135.72023206484732L309.30839989013674,133.93420440447437L312.82326807070643,133.82367207242345L316.3381362512762,130.31842504059307L319.85300443184593,131.6303547643478L323.3678726124156,129.10143185011978L326.8827407929854,133.78317587292187L330.3976089735551,135.56153932935322L333.9124771541249,154.4623653135959L337.42734533469456,224.3691167266402L340.9422135152643,223.537927650172L344.45708169583406,228.69874000057462L347.9719498764038,214.0917647460557L351.4868180569735,206.01883731069788L355.00168623754325,208.56212722737533L358.516554418113,199.88432555463652L362.03142259868275,184.17624664814505L365.54629077925244,180.5010760880494L369.06115895982225,180.3441206422179L372.57602714039194,165.0756383614906L376.0908953209617,169.56338879412883L379.6057635015314,166.8037736416984L383.1206316821012,176.12964970410195L386.6354998626709,167.9946725611763L390.1503680432406,167.1560235794212L393.6652362238103,158.91519269385586L397.18010440438013,155.06835117600954L400.6949725849498,156.70783886644853L404.2098407655195,151.45194652304735L407.72470894608927,150.73391486612277L411.23957712665907,141.25977356169057L414.75444530722876,154.18878237548364L418.2693134877985,149.52380886871524L421.7841816683682,144.520731603863L425.299049848938,151.2851607066565L428.8139180295077,144.90406648320928L432.32878621007745,150.603304933566L435.84365439064715,139.3045513136566L439.35852257121695,140.5948790835244L442.87339075178664,140.8614542773428L446.3882589323564,140.4800632396077L449.9031271129261,138.30447785299938L453.41799529349584,137.73900546534122L456.93286347406564,147.59222517678174L460.44773165463533,137.17967856147865L463.962599835205,140.2781560809679L467.4774680157748,146.52876054753753L470.9923361963446,138.71937236790205L474.5072043769143,141.86822302552798L478.02207255748397,143.1392370615509L481.5369407380537,143.04015972502265L485.0518089186235,141.49203859909463L488.5666770991932,139.5825116508841L492.0815452797629,144.08051156676285L495.59641346033266,146.75051021301084L499.11128164090246,140.66971247896814L502.62614982147215,149.257510078959L506.1410180020419,140.36148739912775L509.6558861826116,146.85087793589457L513.1707543631813,143.0733312168764L516.6856225437512,141.79147433019688L520.2004907243208,139.98647919215463L523.7153589048905,144.48138157990184L527.2302270854602,142.73384093189367L530.74509526603,138.0963598650384L534.2599634465997,139.1568554039082L537.7748316271695,138.10070496693984L541.2896998077392,141.47479489132408L544.804567988309,134.84958931289466L548.3194361688787,142.35239281071094L551.8343043494484,143.59372044957712L555.3491725300181,139.79147462408946L558.8640407105879,141.05991389618526L562.3789088911577,147.8875689260069L565.8937770717274,141.3257560183605L569.4086452522971,135.7558881888688L572.9235134328669,137.1185466956608L576.4383816134366,139.28078206650494L579.9532497940063,135.59741627618524L583.468117974576,138.57857303994427L586.9829861551458,141.44364084868502L590.4978543357156,140.6839938562462L594.0127225162853,134.32695880377668L597.527590696855,136.1790229998753L601.0424588774247,137.5380642187231L604.5573270579945,138.28337800812218L608.0721952385642,137.4755653545542L611.587063419134,140.96668911523454L615.1019315997037,142.47757380695947L618.6167997802735,142.42689422084086L622.1316679608432,136.4639828193187L625.6465361414129,138.04359748417951L629.1614043219826,139.73504162732868L632.6762725025524,134.155441821115L636.1911406831221,144.6461259119421L639.7060088636919,137.1515176443499L643.2208770442616,139.98729939116527L646.7357452248312,134.02053335473244L650.250613405401,132.7658211495943L653.7654815859707,133.47811441783665L657.2803497665404,138.55054957374864L660.7952179471102,137.74042954713983L664.31008612768,140.58456951244423L667.8249543082497,132.08751731892244L671.3398224888194,135.53361425699495L674.8546906693891,143.8449311828086L678.3695588499589,69.0324192677399L681.8844270305286,311.84249997785383" fill="none"></path></g><g><path style="fill: none;" stroke="rgb(51, 187, 238)" stroke-width="2px" d="M70.33251229320041,67.15565371187785L73.81223179196445,155.25998331407695L77.32709997253419,154.19892820720085L80.8419681531039,148.5898335338192L84.35683633367364,145.5661248153461L87.87170451424338,144.57985503364208L91.38657269481311,145.48352656882943L94.90144087538285,140.69144925494516L98.41630905595258,138.17522740781365L101.93117723652232,137.36693930921479L105.44604541709205,137.5347616408388L108.96091359766179,135.9751757551142L112.47578177823152,135.87089105618622L115.99064995880126,137.25636867116617L119.50551813937099,136.4152801231231L123.02038631994073,136.69584902368743L126.53525450051048,138.90135289673296L130.0501226810802,136.00398486981268L133.56499086164993,135.52725471027077L137.07985904221968,135.10285955682858L140.59472722278943,136.78347887567296L144.10959540335915,136.32151229832192L147.6244635839289,135.8876375370841L151.13933176449862,135.13627515553074L154.65419994506837,133.8929894041915L158.1690681256381,134.03324193280883L161.6839363062078,123.18167497167823L165.19880448677756,177.49861292746454L168.71367266734728,173.68709404612983L172.22854084791703,160.73592934367852L175.74340902848675,154.6894913385178L179.2582772090565,147.48051286978065L182.77314538962622,144.28313827728192L186.28801357019597,146.67469287919357L189.8028817507657,140.874347625526L193.31774993133544,140.93667523935198L196.83261811190516,142.32900061475283L200.3474862924749,142.37937976167345L203.86235447304463,140.01331892791012L207.37722265361438,139.30156645022421L210.8920908341841,139.33394177820327L214.40695901475385,136.40414359315034L217.92182719532357,139.61397063930914L221.43669537589332,138.23699920912324L224.95156355646304,139.5736006242707L228.46643173703282,137.83640034236055L231.9812999176025,139.52116497103967L235.4961680981723,137.75903424447748L239.01103627874198,146.11778976856104L242.52590445931176,138.32278736882495L246.04077263988145,139.00491879487964L249.55564082045123,139.2801992144608L253.07050900102095,141.08940200347132L256.5853771815907,141.07572601117727L260.1002453621604,138.43609275467358L263.6151135427301,144.17138390879308L267.12998172329986,137.3060876029491L270.6448499038696,142.3993199112463L274.15971808443936,134.22349355276134L277.67458626500905,138.381905540918L281.18945444557886,134.9827800181625L284.70432262614855,135.8221936176766L288.2191908067183,139.45478893902026L291.734058987288,138.87038662859266L295.2489271678578,133.69939239376902L298.7637953484275,145.71304408976758L302.27866352899724,140.85167798583913L305.793531709567,140.1905404998443L309.30839989013674,140.1921148012419L312.82326807070643,139.87453855136306L316.3381362512762,135.66653306478858L319.85300443184593,136.33935613339057L323.3678726124156,133.08289266162052L326.8827407929854,138.5322235337672L330.3976089735551,139.5740602962437L333.9124771541249,127.0348016775472L337.42734533469456,199.36395885487568L340.9422135152643,248.1613955471994L344.45708169583406,233.9040053347168L347.9719498764038,236.6514617128032L351.4868180569735,224.13566345220792L355.00168623754325,221.32741620679343L358.516554418113,224.73553838133375L362.03142259868275,194.82518182884513L365.54629077925244,197.34617915702924L369.06115895982225,215.21758252645776L372.57602714039194,176.33901075924473L376.0908953209617,182.87622821194492L379.6057635015314,176.96520115772546L383.1206316821012,186.59580368550846L386.6354998626709,177.13802580199658L390.1503680432406,175.65855503281696L393.6652362238103,177.9786126165789L397.18010440438013,175.5975598668342L400.6949725849498,176.76060807265532L404.2098407655195,166.6199379008197L407.72470894608927,168.06544702305473L411.23957712665907,173.8308481936002L414.75444530722876,170.639928537271L418.2693134877985,174.65828178009306L421.7841816683682,160.7253959453958L425.299049848938,170.63130292789577L428.8139180295077,159.64371568757542L432.32878621007745,162.28489169936097L435.84365439064715,167.64526177387484L439.35852257121695,151.38952727526598L442.87339075178664,161.82533389328006L446.3882589323564,148.10504784828026L449.9031271129261,158.05917832645497L453.41799529349584,155.3307217232516L456.93286347406564,154.73369495772303L460.44773165463533,150.15203774715457L463.962599835205,171.68829008803058L467.4774680157748,170.03821492025327L470.9923361963446,164.86639748202705L474.5072043769143,149.23029779859803L478.02207255748397,159.73464060646526L481.5369407380537,152.131356721066L485.0518089186235,159.87477446159946L488.5666770991932,158.412608990226L492.0815452797629,166.10338978326575L495.59641346033266,158.4444705671764L499.11128164090246,145.88791472497726L502.62614982147215,167.97846086205095L506.1410180020419,148.94080660495038L509.6558861826116,158.11664934064493L513.1707543631813,165.48476444379122L516.6856225437512,160.38843535846044L520.2004907243208,148.21517834290378L523.7153589048905,161.59155013573L527.2302270854602,150.8110015555517L530.74509526603,156.01879658774124L534.2599634465997,161.79214137068243L537.7748316271695,156.2880652189699L541.2896998077392,154.90731576586887L544.804567988309,154.1624608973448L548.3194361688787,149.2331459621953L551.8343043494484,165.33208124335562L555.3491725300181,157.41792090219337L558.8640407105879,158.73375445777742L562.3789088911577,159.27914473834167L565.8937770717274,146.83057575708813L569.4086452522971,159.855080672169L572.9235134328669,169.33491980599175L576.4383816134366,150.23256746979277L579.9532497940063,149.92174208869352L583.468117974576,148.22831054024942L586.9829861551458,159.3739723624139L590.4978543357156,162.17304119032875L594.0127225162853,158.5189464399745L597.527590696855,146.32551192787858L601.0424588774247,158.97581831962503L604.5573270579945,148.38908607048378L608.0721952385642,164.7836655400673L611.587063419134,149.6021018215242L615.1019315997037,153.80689711526776L618.6167997802735,157.74627991488936L622.1316679608432,154.24113691013122L625.6465361414129,164.61142374784035L629.1614043219826,146.6941598370295L632.6762725025524,165.7422047837937L636.1911406831221,156.68122596228758L639.7060088636919,157.64679848763976L643.2208770442616,163.63915142837226L646.7357452248312,156.91149157682884L650.250613405401,149.67074767168464L653.7654815859707,162.28337147701896L657.2803497665404,156.98538760197474L660.7952179471102,161.3744257317103L664.31008612768,169.32749595340857L667.8249543082497,165.25076437001857L671.3398224888194,154.98480804821511L674.8546906693891,150.7695139066966L678.3695588499589,173.64079636571438" fill="none"></path></g><g><path style="fill: none;" stroke="rgb(0, 119, 187)" stroke-width="2px" d="M70.33251229320041,64.09562039216769L73.81223179196445,151.0935991718007L77.32709997253419,141.73239897068945L80.8419681531039,140.63782085809794L84.35683633367364,135.91444948221368L87.87170451424338,137.378463405753L91.38657269481311,138.0757234476242L94.90144087538285,138.12389136204732L98.41630905595258,134.37214185476748L101.93117723652232,133.74384237311662L105.44604541709205,134.96532149636536L108.96091359766179,133.79753085780345L112.47578177823152,133.38169671930893L115.99064995880126,133.08468703473076L119.50551813937099,132.08915396145363L123.02038631994073,134.25098974816441L126.53525450051048,135.82601745756944L130.0501226810802,135.92992134981395L133.56499086164993,132.20670530426838L137.07985904221968,132.06085897333278L140.59472722278943,130.62394053441625L144.10959540335915,132.5557728397861L147.6244635839289,133.24114074710153L151.13933176449862,132.57539302161302L154.65419994506837,133.51105081601798L158.1690681256381,132.63272808706586L161.6839363062078,122.09673588743178L165.19880448677756,184.2558149653496L168.71367266734728,173.35323399171804L172.22854084791703,156.8231294042981L175.74340902848675,150.02524189021662L179.2582772090565,145.42299558140763L182.77314538962622,140.72611242741712L186.28801357019597,146.61229165776408L189.8028817507657,139.95672519617838L193.31774993133544,135.92715205150614L196.83261811190516,141.39165585425096L200.3474862924749,141.57822709402765L203.86235447304463,140.8885899457083L207.37722265361438,137.46829172157007L210.8920908341841,135.92435270927854L214.40695901475385,136.7841728902204L217.92182719532357,138.10973166264446L221.43669537589332,139.70335580730915L224.95156355646304,141.76919075487945L228.46643173703282,137.9260318705029L231.9812999176025,139.39279931929207L235.4961680981723,139.39765441673214L239.01103627874198,144.47734067268843L242.52590445931176,139.58163136403388L246.04077263988145,138.6449746092955L249.55564082045123,140.40359845931872L253.07050900102095,139.15805565850425L256.5853771815907,139.9292981017908L260.1002453621604,136.78544750351801L263.6151135427301,137.81279107908182L267.12998172329986,134.06813118577733L270.6448499038696,137.99833631899727L274.15971808443936,136.28984901124218L277.67458626500905,135.4494987925283L281.18945444557886,136.98293970814282L284.70432262614855,138.37299826979464L288.2191908067183,139.58484155686475L291.734058987288,141.6920049205152L295.2489271678578,137.1165818233057L298.7637953484275,144.19443510626144L302.27866352899724,138.76193859347805L305.793531709567,135.94833752155478L309.30839989013674,138.6225933912387L312.82326807070643,138.92002969947808L316.3381362512762,136.18696661227102L319.85300443184593,137.29582910653255L323.3678726124156,134.22383605344706L326.8827407929854,134.61684732826373L330.3976089735551,139.03127482352627L333.9124771541249,119.02643092709019L337.42734533469456,226.83803592423888L340.9422135152643,246.88139237037166L344.45708169583406,212.80940612591544L347.9719498764038,224.573150994802L351.4868180569735,220.33899528043153L355.00168623754325,217.42908541918982L358.516554418113,220.14756143223485L362.03142259868275,188.3328830406414L365.54629077925244,201.58614536548947L369.06115895982225,209.91346067859786L372.57602714039194,178.85698266470473L376.0908953209617,180.28634017565403L379.6057635015314,172.72242584276373L383.1206316821012,189.14133487860317L386.6354998626709,180.83364425390968L390.1503680432406,179.39794146709815L393.6652362238103,174.46363022808555L397.18010440438013,173.71259832965006L400.6949725849498,177.16447646899056L404.2098407655195,159.96765523966846L407.72470894608927,166.94682476144536L411.23957712665907,165.45139466206675L414.75444530722876,164.32916412568912L418.2693134877985,162.23818241724422L421.7841816683682,159.45442397086066L425.299049848938,169.18442680730973L428.8139180295077,156.83177904880918L432.32878621007745,164.36230256923113L435.84365439064715,168.7989512986775L439.35852257121695,144.99416068771663L442.87339075178664,155.5241625052911L446.3882589323564,149.7598759641703L449.9031271129261,159.4935111105235L453.41799529349584,157.29279398500051L456.93286347406564,154.02018791512072L460.44773165463533,155.22877669457824L463.962599835205,159.26846412485193L467.4774680157748,163.54378000935165L470.9923361963446,161.48127092370342L474.5072043769143,144.81179409451627L478.02207255748397,157.75408532525395L481.5369407380537,145.85435867094998L485.0518089186235,157.92900703512728L488.5666770991932,154.12675670305165L492.0815452797629,158.54590184482117L495.59641346033266,146.99640617682923L499.11128164090246,135.7890649384085L502.62614982147215,160.209271447111L506.1410180020419,149.04357784141834L509.6558861826116,150.96041898190478L513.1707543631813,155.73248103641671L516.6856225437512,154.2022630822989L520.2004907243208,154.24937495294103L523.7153589048905,152.6439300280301L527.2302270854602,147.73441253383442L530.74509526603,150.11821129784906L534.2599634465997,150.78314032652298L537.7748316271695,150.0807164859357L541.2896998077392,147.38043507072297L544.804567988309,152.58272755900072L548.3194361688787,149.37277357728078L551.8343043494484,165.93302273163445L555.3491725300181,156.01869443841392L558.8640407105879,157.20179996509506L562.3789088911577,156.44073940622957L565.8937770717274,142.30929030116653L569.4086452522971,152.68014196456792L572.9235134328669,164.57221943689024L576.4383816134366,147.44109374480394L579.9532497940063,146.935329892263L583.468117974576,141.11866027477086L586.9829861551458,151.88332313235364L590.4978543357156,157.16506526435276L594.0127225162853,154.67446637422466L597.527590696855,142.88230897038102L601.0424588774247,157.56726922753091L604.5573270579945,145.00542415325054L608.0721952385642,158.11577205818668L611.587063419134,148.8279315982529L615.1019315997037,148.43804263780171L618.6167997802735,150.1251394257555L622.1316679608432,151.46842561305897L625.6465361414129,162.0494615350057L629.1614043219826,142.88332896145832L632.6762725025524,162.89118100536464L636.1911406831221,149.37918795415857L639.7060088636919,151.74139265081527L643.2208770442616,159.00728632122605L646.7357452248312,152.74855797874184L650.250613405401,142.99958691352555L653.7654815859707,159.37375003740732L657.2803497665404,150.65346776426398L660.7952179471102,160.48871595397674L664.31008612768,164.68095138704697L667.8249543082497,162.94441582686244L671.3398224888194,153.13965470476907L674.8546906693891,145.96006519838264L678.3695588499589,145.49574392881706" fill="none"></path></g><g><path style="fill: none;" stroke="rgb(255, 112, 67)" stroke-width="2px" d="M70.33251229320041,66.2627003450799L73.81223179196445,161.3117330842587L77.32709997253419,146.11977116507202L80.8419681531039,142.91235439237937L84.35683633367364,144.46439324544957L87.87170451424338,140.58767004496784L91.38657269481311,141.38226562711677L94.90144087538285,136.9698706030288L98.41630905595258,137.90446108718282L101.93117723652232,135.77401068129353L105.44604541709205,135.81331263498302L108.96091359766179,133.29308518224383L112.47578177823152,133.91152650270953L115.99064995880126,134.58571056087857L119.50551813937099,131.55655938633325L123.02038631994073,133.85065752118993L126.53525450051048,133.93036929811157L130.0501226810802,132.1009105228213L133.56499086164993,128.30382173616772L137.07985904221968,129.8683641175617L140.59472722278943,131.62309577777452L144.10959540335915,130.90680704374748L147.6244635839289,132.23642700303085L151.13933176449862,128.40922087674585L154.65419994506837,129.63442901376555L158.1690681256381,129.16952376550884L161.6839363062078,133.73234606720422L165.19880448677756,168.07665941392497L168.71367266734728,159.19775575959707L172.22854084791703,154.09808278599226L175.74340902848675,144.04932147142006L179.2582772090565,140.2114570768107L182.77314538962622,137.16986471507522L186.28801357019597,137.08881523262437L189.8028817507657,135.5558212203169L193.31774993133544,132.485862140602L196.83261811190516,135.79174410495688L200.3474862924749,134.69328131353492L203.86235447304463,134.07974841846692L207.37722265361438,129.68891666671917L210.8920908341841,129.75721062746888L214.40695901475385,131.17556117284957L217.92182719532357,131.46311228037592L221.43669537589332,132.5414366323544L224.95156355646304,131.56660982860512L228.46643173703282,132.18994154811665L231.9812999176025,132.14268096007152L235.4961680981723,132.10213143261228L239.01103627874198,131.74734954354815L242.52590445931176,133.00886519432552L246.04077263988145,134.4969262712746L249.55564082045123,134.86290552924905L253.07050900102095,132.34551722693124L256.5853771815907,134.71282788775835L260.1002453621604,132.1817590865585L263.6151135427301,130.86394563665945L267.12998172329986,132.31044620824792L270.6448499038696,133.16299275620563L274.15971808443936,131.3586995192398L277.67458626500905,131.004929359175L281.18945444557886,134.43482699123913L284.70432262614855,137.4539352344925L288.2191908067183,135.50855086799783L291.734058987288,135.10626728843218L295.2489271678578,135.3633628744549L298.7637953484275,138.05266624137187L302.27866352899724,136.297936834453L305.793531709567,134.9067854252184L309.30839989013674,134.45692579644972L312.82326807070643,134.75762111888966L316.3381362512762,131.04914950253612L319.85300443184593,133.25146008245565L323.3678726124156,131.0336029006854L326.8827407929854,132.57699886912647L330.3976089735551,132.89531194613852L333.9124771541249,142.0743333285481L337.42734533469456,249.6383426271156L340.9422135152643,240.680952236696L344.45708169583406,219.91178876719383L347.9719498764038,223.60845875630002L351.4868180569735,212.75139732556107L355.00168623754325,213.52230027255382L358.516554418113,198.47897914439332L362.03142259868275,181.17338690781875L365.54629077925244,181.0232814757022L369.06115895982225,184.7186715938248L372.57602714039194,163.31929184058836L376.0908953209617,171.76345396659212L379.6057635015314,162.92621522024615L383.1206316821012,181.57008081610516L386.6354998626709,162.6579200120191L390.1503680432406,168.31945935180778L393.6652362238103,158.83181781201233L397.18010440438013,154.8468854255784L400.6949725849498,159.97432498986458L404.2098407655195,153.32016758811764L407.72470894608927,150.50233783448218L411.23957712665907,147.32351536246142L414.75444530722876,151.76449041635934L418.2693134877985,154.30874774725447L421.7841816683682,148.6196175737153L425.299049848938,150.1676560788638L428.8139180295077,147.65703592057943L432.32878621007745,149.99464516228994L435.84365439064715,143.89100353382554L439.35852257121695,142.20735729006105L442.87339075178664,146.84136753308113L446.3882589323564,142.25485222068062L449.9031271129261,142.9504440739048L453.41799529349584,137.240734566399L456.93286347406564,144.17133283412946L460.44773165463533,137.85083945021753L463.962599835205,141.98413697471344L467.4774680157748,148.15177816114087L470.9923361963446,140.34830112272647L474.5072043769143,141.23817498774466L478.02207255748397,143.50159828048317L481.5369407380537,142.7979306216161L485.0518089186235,144.30519351880886L488.5666770991932,138.40301139457918L492.0815452797629,139.56698495313023L495.59641346033266,142.7875444385404L499.11128164090246,139.75944630338415L502.62614982147215,149.02736163570503L506.1410180020419,139.2522989283363L509.6558861826116,143.59579348004348L513.1707543631813,140.6725200832737L516.6856225437512,140.13738829912594L520.2004907243208,138.49593648742987L523.7153589048905,140.53223751073648L527.2302270854602,140.20087410606033L530.74509526603,140.24597303407563L534.2599634465997,138.31052043636961L537.7748316271695,136.8734085897194L541.2896998077392,142.05539213930874L544.804567988309,136.88390293090634L548.3194361688787,144.26415803094682L551.8343043494484,144.0481482563518L555.3491725300181,140.246216389826L558.8640407105879,137.57681862197413L562.3789088911577,147.0467297424982L565.8937770717274,144.6734598701783L569.4086452522971,139.67726566735277L572.9235134328669,138.13275206509505L576.4383816134366,143.44346479786157L579.9532497940063,136.46405116923623L583.468117974576,140.32987368451572L586.9829861551458,141.71322043448362L590.4978543357156,145.00323845808492L594.0127225162853,134.14084122718904L597.527590696855,138.18066009961188L601.0424588774247,140.9525429355956L604.5573270579945,138.38470037655765L608.0721952385642,141.11958112091276L611.587063419134,137.90666105321034L615.1019315997037,147.0886545303864L618.6167997802735,144.47613591150437L622.1316679608432,140.61743455631603L625.6465361414129,136.68077223363258L629.1614043219826,140.03128368975592L632.6762725025524,134.01028687588388L636.1911406831221,141.39820993535585L639.7060088636919,136.04254548978105L643.2208770442616,141.95360033462634L646.7357452248312,134.2692519448163L650.250613405401,135.9044012932358L653.7654815859707,135.72363153437297L657.2803497665404,139.0166073818788L660.7952179471102,138.4375363650201L664.31008612768,140.9167756490709L667.8249543082497,136.65914211357088L671.3398224888194,136.9616806304907L674.8546906693891,142.53654551494358L678.3695588499589,127.54757731153376L681.8844270305286,282.2319817449928L685.3992952110983,234.93814108944997L688.9141633916681,308.1936899529928L692.4290315722379,230.71963825729654L695.9438997528076,274.12458191605367L699.4587679333773,259.30595926409507L702.973636113947,244.68927982348" fill="none"></path></g></g></g></g></g><g><g opacity="0.486512"><span fill="rgb(0, 0, 0)" stroke="none" stroke-width="1px">Alt + Scroll to Zoom</span></g></g></g><g transform="translate(41, 378)" clip-path="url(#clip_1)"><clipPath id="clip_1"><rect width="773" height="21"></rect></clipPath><g><g><line x1="0" y1="0" x2="0" y2="5" style="visibility: inherit;" fill="rgb(0, 0, 0)" stroke="rgb(204, 204, 204)" stroke-width="1px"></line><line x1="70.29736361139472" y1="0" x2="70.29736361139472" y2="5" style="visibility: inherit;" fill="rgb(0, 0, 0)" stroke="rgb(204, 204, 204)" stroke-width="1px"></line><line x1="140.59472722278943" y1="0" x2="140.59472722278943" y2="5" style="visibility: inherit;" fill="rgb(0, 0, 0)" stroke="rgb(204, 204, 204)" stroke-width="1px"></line><line x1="210.8920908341841" y1="0" x2="210.8920908341841" y2="5" style="visibility: inherit;" fill="rgb(0, 0, 0)" stroke="rgb(204, 204, 204)" stroke-width="1px"></line><line x1="281.18945444557886" y1="0" x2="281.18945444557886" y2="5" style="visibility: inherit;" fill="rgb(0, 0, 0)" stroke="rgb(204, 204, 204)" stroke-width="1px"></line><line x1="351.4868180569735" y1="0" x2="351.4868180569735" y2="5" style="visibility: inherit;" fill="rgb(0, 0, 0)" stroke="rgb(204, 204, 204)" stroke-width="1px"></line><line x1="421.7841816683682" y1="0" x2="421.7841816683682" y2="5" style="visibility: inherit;" fill="rgb(0, 0, 0)" stroke="rgb(204, 204, 204)" stroke-width="1px"></line><line x1="492.0815452797629" y1="0" x2="492.0815452797629" y2="5" style="visibility: inherit;" fill="rgb(0, 0, 0)" stroke="rgb(204, 204, 204)" stroke-width="1px"></line><line x1="562.3789088911577" y1="0" x2="562.3789088911577" y2="5" style="visibility: inherit;" fill="rgb(0, 0, 0)" stroke="rgb(204, 204, 204)" stroke-width="1px"></line><line x1="632.6762725025524" y1="0" x2="632.6762725025524" y2="5" style="visibility: inherit;" fill="rgb(0, 0, 0)" stroke="rgb(204, 204, 204)" stroke-width="1px"></line><line x1="702.973636113947" y1="0" x2="702.973636113947" y2="5" style="visibility: inherit;" fill="rgb(0, 0, 0)" stroke="rgb(204, 204, 204)" stroke-width="1px"></line><line x1="773.2709997253418" y1="0" x2="773.2709997253418" y2="5" style="visibility: inherit;" fill="rgb(0, 0, 0)" stroke="rgb(204, 204, 204)" stroke-width="1px"></line></g><g transform="translate(0, 8)"><text style="text-anchor: middle; visibility: hidden; font-family: &quot;Helvetica Neue&quot;, sans-serif; font-size: 12px; font-weight: 200;" x="0" y="0" dx="0em" dy="0.95em" fill="rgb(50, 49, 63)" stroke="none" stroke-width="1px">-2k</text><text style="text-anchor: middle; visibility: inherit; font-family: &quot;Helvetica Neue&quot;, sans-serif; font-size: 12px; font-weight: 200;" x="70.29736361139472" y="0" dx="0em" dy="0.95em" fill="rgb(50, 49, 63)" stroke="none" stroke-width="1px">0</text><text style="text-anchor: middle; visibility: inherit; font-family: &quot;Helvetica Neue&quot;, sans-serif; font-size: 12px; font-weight: 200;" x="140.59472722278943" y="0" dx="0em" dy="0.95em" fill="rgb(50, 49, 63)" stroke="none" stroke-width="1px">2k</text><text style="text-anchor: middle; visibility: inherit; font-family: &quot;Helvetica Neue&quot;, sans-serif; font-size: 12px; font-weight: 200;" x="210.8920908341841" y="0" dx="0em" dy="0.95em" fill="rgb(50, 49, 63)" stroke="none" stroke-width="1px">4k</text><text style="text-anchor: middle; visibility: inherit; font-family: &quot;Helvetica Neue&quot;, sans-serif; font-size: 12px; font-weight: 200;" x="281.18945444557886" y="0" dx="0em" dy="0.95em" fill="rgb(50, 49, 63)" stroke="none" stroke-width="1px">6k</text><text style="text-anchor: middle; visibility: inherit; font-family: &quot;Helvetica Neue&quot;, sans-serif; font-size: 12px; font-weight: 200;" x="351.4868180569735" y="0" dx="0em" dy="0.95em" fill="rgb(50, 49, 63)" stroke="none" stroke-width="1px">8k</text><text style="text-anchor: middle; visibility: inherit; font-family: &quot;Helvetica Neue&quot;, sans-serif; font-size: 12px; font-weight: 200;" x="421.7841816683682" y="0" dx="0em" dy="0.95em" fill="rgb(50, 49, 63)" stroke="none" stroke-width="1px">10k</text><text style="text-anchor: middle; visibility: inherit; font-family: &quot;Helvetica Neue&quot;, sans-serif; font-size: 12px; font-weight: 200;" x="492.0815452797629" y="0" dx="0em" dy="0.95em" fill="rgb(50, 49, 63)" stroke="none" stroke-width="1px">12k</text><text style="text-anchor: middle; visibility: inherit; font-family: &quot;Helvetica Neue&quot;, sans-serif; font-size: 12px; font-weight: 200;" x="562.3789088911577" y="0" dx="0em" dy="0.95em" fill="rgb(50, 49, 63)" stroke="none" stroke-width="1px">14k</text><text style="text-anchor: middle; visibility: inherit; font-family: &quot;Helvetica Neue&quot;, sans-serif; font-size: 12px; font-weight: 200;" x="632.6762725025524" y="0" dx="0em" dy="0.95em" fill="rgb(50, 49, 63)" stroke="none" stroke-width="1px">16k</text><text style="text-anchor: middle; visibility: inherit; font-family: &quot;Helvetica Neue&quot;, sans-serif; font-size: 12px; font-weight: 200;" x="702.973636113947" y="0" dx="0em" dy="0.95em" fill="rgb(50, 49, 63)" stroke="none" stroke-width="1px">18k</text><text style="text-anchor: middle; visibility: hidden; font-family: &quot;Helvetica Neue&quot;, sans-serif; font-size: 12px; font-weight: 200;" x="773.2709997253418" y="0" dx="0em" dy="0.95em" fill="rgb(50, 49, 63)" stroke="none" stroke-width="1px">20k</text></g><line x1="0" y1="0" x2="773.2709997253418" y2="0" fill="rgb(0, 0, 0)" stroke="rgb(204, 204, 204)" stroke-width="1px"></line></g></g></g></g></svg>