<svg viewBox="0 0 814.3333740234375 400" xmlns="http://www.w3.org/2000/svg"><g><g><g><g><g><line x1="30.70800018310547" y1="378.0399990081787" x2="25.70800018310547" y2="378.0399990081787" style="visibility: inherit;" fill="rgb(0, 0, 0)" stroke="rgb(204, 204, 204)" stroke-width="1px"></line><line x1="30.70800018310547" y1="336.03555467393664" x2="25.70800018310547" y2="336.03555467393664" style="visibility: inherit;" fill="rgb(0, 0, 0)" stroke="rgb(204, 204, 204)" stroke-width="1px"></line><line x1="30.70800018310547" y1="294.0311103396946" x2="25.70800018310547" y2="294.0311103396946" style="visibility: inherit;" fill="rgb(0, 0, 0)" stroke="rgb(204, 204, 204)" stroke-width="1px"></line><line x1="30.70800018310547" y1="252.02666600545248" x2="25.70800018310547" y2="252.02666600545248" style="visibility: inherit;" fill="rgb(0, 0, 0)" stroke="rgb(204, 204, 204)" stroke-width="1px"></line><line x1="30.70800018310547" y1="210.02222167121042" x2="25.70800018310547" y2="210.02222167121042" style="visibility: inherit;" fill="rgb(0, 0, 0)" stroke="rgb(204, 204, 204)" stroke-width="1px"></line><line x1="30.70800018310547" y1="168.0177773369683" x2="25.70800018310547" y2="168.0177773369683" style="visibility: inherit;" fill="rgb(0, 0, 0)" stroke="rgb(204, 204, 204)" stroke-width="1px"></line><line x1="30.70800018310547" y1="126.01333300272626" x2="25.70800018310547" y2="126.01333300272626" style="visibility: inherit;" fill="rgb(0, 0, 0)" stroke="rgb(204, 204, 204)" stroke-width="1px"></line><line x1="30.70800018310547" y1="84.00888866848413" x2="25.70800018310547" y2="84.00888866848413" style="visibility: inherit;" fill="rgb(0, 0, 0)" stroke="rgb(204, 204, 204)" stroke-width="1px"></line><line x1="30.70800018310547" y1="42.00444433424212" x2="25.70800018310547" y2="42.00444433424212" style="visibility: inherit;" fill="rgb(0, 0, 0)" stroke="rgb(204, 204, 204)" stroke-width="1px"></line><line x1="30.70800018310547" y1="0" x2="25.70800018310547" y2="0" style="visibility: inherit;" fill="rgb(0, 0, 0)" stroke="rgb(204, 204, 204)" stroke-width="1px"></line></g><g transform="translate(20.70800018310547, 0)"><text style="text-anchor: end; visibility: hidden; font-family: &quot;Helvetica Neue&quot;, sans-serif; font-size: 12px; font-weight: 200;" x="0" y="378.0399990081787" dx="0em" dy="0.3em" fill="rgb(50, 49, 63)" stroke="none" stroke-width="1px">-1</text><text style="text-anchor: end; visibility: inherit; font-family: &quot;Helvetica Neue&quot;, sans-serif; font-size: 12px; font-weight: 200;" x="0" y="336.03555467393664" dx="0em" dy="0.3em" fill="rgb(50, 49, 63)" stroke="none" stroke-width="1px">0</text><text style="text-anchor: end; visibility: inherit; font-family: &quot;Helvetica Neue&quot;, sans-serif; font-size: 12px; font-weight: 200;" x="0" y="294.0311103396946" dx="0em" dy="0.3em" fill="rgb(50, 49, 63)" stroke="none" stroke-width="1px">1</text><text style="text-anchor: end; visibility: inherit; font-family: &quot;Helvetica Neue&quot;, sans-serif; font-size: 12px; font-weight: 200;" x="0" y="252.02666600545248" dx="0em" dy="0.3em" fill="rgb(50, 49, 63)" stroke="none" stroke-width="1px">2</text><text style="text-anchor: end; visibility: inherit; font-family: &quot;Helvetica Neue&quot;, sans-serif; font-size: 12px; font-weight: 200;" x="0" y="210.02222167121042" dx="0em" dy="0.3em" fill="rgb(50, 49, 63)" stroke="none" stroke-width="1px">3</text><text style="text-anchor: end; visibility: inherit; font-family: &quot;Helvetica Neue&quot;, sans-serif; font-size: 12px; font-weight: 200;" x="0" y="168.0177773369683" dx="0em" dy="0.3em" fill="rgb(50, 49, 63)" stroke="none" stroke-width="1px">4</text><text style="text-anchor: end; visibility: inherit; font-family: &quot;Helvetica Neue&quot;, sans-serif; font-size: 12px; font-weight: 200;" x="0" y="126.01333300272626" dx="0em" dy="0.3em" fill="rgb(50, 49, 63)" stroke="none" stroke-width="1px">5</text><text style="text-anchor: end; visibility: inherit; font-family: &quot;Helvetica Neue&quot;, sans-serif; font-size: 12px; font-weight: 200;" x="0" y="84.00888866848413" dx="0em" dy="0.3em" fill="rgb(50, 49, 63)" stroke="none" stroke-width="1px">6</text><text style="text-anchor: end; visibility: inherit; font-family: &quot;Helvetica Neue&quot;, sans-serif; font-size: 12px; font-weight: 200;" x="0" y="42.00444433424212" dx="0em" dy="0.3em" fill="rgb(50, 49, 63)" stroke="none" stroke-width="1px">7</text><text style="text-anchor: end; visibility: hidden; font-family: &quot;Helvetica Neue&quot;, sans-serif; font-size: 12px; font-weight: 200;" x="0" y="0" dx="0em" dy="0.3em" fill="rgb(50, 49, 63)" stroke="none" stroke-width="1px">8</text></g><line x1="30.70800018310547" y1="0" x2="30.70800018310547" y2="378.0399990081787" fill="rgb(0, 0, 0)" stroke="rgb(204, 204, 204)" stroke-width="1px"></line></g></g><g transform="translate(30, 0)" clip-path="url(#clip_0)"><clipPath id="clip_0"><rect width="783" height="378"></rect></clipPath><g><g><g><line x1="0" y1="0" x2="0" y2="378.0399990081787" fill="rgb(0, 0, 0)" stroke="rgb(60, 60, 60)" stroke-width="1px" opacity="0.25"></line><line x1="71.23863634699042" y1="0" x2="71.23863634699042" y2="378.0399990081787" fill="rgb(0, 0, 0)" stroke="rgb(60, 60, 60)" stroke-width="1px" opacity="0.25"></line><line x1="142.47727269398084" y1="0" x2="142.47727269398084" y2="378.0399990081787" fill="rgb(0, 0, 0)" stroke="rgb(60, 60, 60)" stroke-width="1px" opacity="0.25"></line><line x1="213.7159090409712" y1="0" x2="213.7159090409712" y2="378.0399990081787" fill="rgb(0, 0, 0)" stroke="rgb(60, 60, 60)" stroke-width="1px" opacity="0.25"></line><line x1="284.9545453879617" y1="0" x2="284.9545453879617" y2="378.0399990081787" fill="rgb(0, 0, 0)" stroke="rgb(60, 60, 60)" stroke-width="1px" opacity="0.25"></line><line x1="356.193181734952" y1="0" x2="356.193181734952" y2="378.0399990081787" fill="rgb(0, 0, 0)" stroke="rgb(60, 60, 60)" stroke-width="1px" opacity="0.25"></line><line x1="427.4318180819424" y1="0" x2="427.4318180819424" y2="378.0399990081787" fill="rgb(0, 0, 0)" stroke="rgb(60, 60, 60)" stroke-width="1px" opacity="0.25"></line><line x1="498.6704544289328" y1="0" x2="498.6704544289328" y2="378.0399990081787" fill="rgb(0, 0, 0)" stroke="rgb(60, 60, 60)" stroke-width="1px" opacity="0.25"></line><line x1="569.9090907759233" y1="0" x2="569.9090907759233" y2="378.0399990081787" fill="rgb(0, 0, 0)" stroke="rgb(60, 60, 60)" stroke-width="1px" opacity="0.25"></line><line x1="641.1477271229137" y1="0" x2="641.1477271229137" y2="378.0399990081787" fill="rgb(0, 0, 0)" stroke="rgb(60, 60, 60)" stroke-width="1px" opacity="0.25"></line><line x1="712.386363469904" y1="0" x2="712.386363469904" y2="378.0399990081787" fill="rgb(0, 0, 0)" stroke="rgb(60, 60, 60)" stroke-width="1px" opacity="0.25"></line><line x1="783.6249998168945" y1="0" x2="783.6249998168945" y2="378.0399990081787" fill="rgb(0, 0, 0)" stroke="rgb(60, 60, 60)" stroke-width="1px" opacity="0.25"></line></g><g><line x1="0" y1="378.0399990081787" x2="783.6249998168945" y2="378.0399990081787" fill="rgb(0, 0, 0)" stroke="rgb(60, 60, 60)" stroke-width="1px" opacity="0.25"></line><line x1="0" y1="336.03555467393664" x2="783.6249998168945" y2="336.03555467393664" fill="rgb(0, 0, 0)" stroke="rgb(60, 60, 60)" stroke-width="1px" opacity="0.25"></line><line x1="0" y1="294.0311103396946" x2="783.6249998168945" y2="294.0311103396946" fill="rgb(0, 0, 0)" stroke="rgb(60, 60, 60)" stroke-width="1px" opacity="0.25"></line><line x1="0" y1="252.02666600545248" x2="783.6249998168945" y2="252.02666600545248" fill="rgb(0, 0, 0)" stroke="rgb(60, 60, 60)" stroke-width="1px" opacity="0.25"></line><line x1="0" y1="210.02222167121042" x2="783.6249998168945" y2="210.02222167121042" fill="rgb(0, 0, 0)" stroke="rgb(60, 60, 60)" stroke-width="1px" opacity="0.25"></line><line x1="0" y1="168.0177773369683" x2="783.6249998168945" y2="168.0177773369683" fill="rgb(0, 0, 0)" stroke="rgb(60, 60, 60)" stroke-width="1px" opacity="0.25"></line><line x1="0" y1="126.01333300272626" x2="783.6249998168945" y2="126.01333300272626" fill="rgb(0, 0, 0)" stroke="rgb(60, 60, 60)" stroke-width="1px" opacity="0.25"></line><line x1="0" y1="84.00888866848413" x2="783.6249998168945" y2="84.00888866848413" fill="rgb(0, 0, 0)" stroke="rgb(60, 60, 60)" stroke-width="1px" opacity="0.25"></line><line x1="0" y1="42.00444433424212" x2="783.6249998168945" y2="42.00444433424212" fill="rgb(0, 0, 0)" stroke="rgb(60, 60, 60)" stroke-width="1px" opacity="0.25"></line><line x1="0" y1="0" x2="783.6249998168945" y2="0" fill="rgb(0, 0, 0)" stroke="rgb(60, 60, 60)" stroke-width="1px" opacity="0.25"></line></g></g></g><g><g><line x1="0" y1="336.03555467393664" x2="783.6249998168945" y2="336.03555467393664" fill="rgb(0, 0, 0)" stroke="rgb(153, 153, 153)" stroke-width="1.5px"></line></g></g><g><g><line x1="71.23863634699042" y1="0" x2="71.23863634699042" y2="378.0399990081787" fill="rgb(0, 0, 0)" stroke="rgb(153, 153, 153)" stroke-width="1.5px"></line></g></g><g><g><g><g><g><path style="fill: none;" stroke="rgb(238, 51, 119)" stroke-width="2px" d="M71.2742556651639,95.86464003737342L74.80056816433994,254.52451749782085L78.36249998168945,257.1532002462886L81.92443179903897,258.80190040400294L85.48636361638849,266.9706719493863L89.048295433738,255.68927019535874L92.61022725108754,255.69579974059582L96.17215906843705,267.18395373606324L99.73409088578656,249.49998236471376L103.29602270313609,251.6348131741102L106.8579545204856,252.32935849746127L110.41988633783512,257.17971901283414L113.98181815518465,259.0107657344689L117.54374997253417,271.42473313328617L121.10568178988369,263.25668264197805L124.6676136072332,274.0020507935318L128.22954542458274,272.3253997757613L131.79147724193226,272.3613623477647L135.35340905928177,266.63644335622496L138.9153408766313,257.3135746901936L142.47727269398084,253.72898454537412L146.03920451133035,263.19319983943564L149.60113632867987,272.722810732267L153.1630681460294,273.1739001588196L156.7249999633789,268.2854139092175L160.28693178072842,273.1180785558268L163.84886359807794,259.6865135786637L167.41079541542746,262.2529152813811L170.97272723277698,261.3989869634785L174.5346590501265,261.57814887189994L178.096590867476,252.07336427146527L181.65852268482553,267.05388359259894L185.22045450217507,257.15064651310536L188.7823863195246,259.5610802134888L192.3443181368741,260.4144477115551L195.90624995422363,269.70976610312766L199.46818177157311,261.0427762356618L203.03011358892266,268.54702634821655L206.59204540627218,261.487235970578L210.15397722362172,269.6560776184409L213.7159090409712,259.24828294978647L217.27784085832076,269.1597019901062L220.83977267567025,269.6033505391878L224.4017044930198,262.38449763547555L227.9636363103693,263.2293526895978L231.52556812771886,260.6113856058596L235.08749994506834,263.3046928258222L238.6494317624179,270.3778126892131L242.21136357976738,262.79374589638337L245.77329539711693,262.0678247061187L249.3352272144664,265.72763481148337L252.89715903181596,272.00911741736184L256.4590908491655,262.99015301477135L260.021022666515,265.1431303517284L263.5829544838645,265.234543985047L267.144886301214,271.2861605605177L270.70681811856355,270.4374999432205L274.26874993591304,263.13221068223686L277.8306817532626,264.0740174655614L281.3926135706121,249.84642881859475L284.9545453879617,264.7190904676379L288.51647720531116,261.07590466456384L292.0784090226607,272.4087015507333L295.6403408400102,265.0833329366818L299.20227265735974,269.3932834519296L302.76420447470923,264.1563778643796L306.3261362920588,260.2536025795732L309.88806810940827,273.1116491569891L313.4499999267578,262.66820237016924L317.0119317441073,272.94718873999096L320.57386356145685,258.8613172627321L324.13579537880634,272.67620259801356L327.6977271961559,273.00325069434217L331.2596590135054,261.5440189790045L334.8215908308549,262.1448372872121L338.38352264820446,238.1197461291764L341.94545446555395,241.15645535247998L345.5073862829035,239.86751110511906L349.069318100253,241.91597565972367L352.63124991760253,240.89641521195063L356.193181734952,240.1226140281609L359.75511355230157,240.93150651027977L363.31704536965105,246.28275925659761L366.8789771870006,231.30057750523494L370.44090900435015,245.50162735637616L374.0028408216997,235.90022150985712L377.5647726390492,244.0821823360337L381.1267044563987,237.02172097751952L384.6886362737482,244.681528492171L388.25056809109776,244.2414751988258L391.81249990844725,242.66372876504468L395.37443172579674,241.04657472312283L398.93636354314623,239.55528467589298L402.49829536049583,245.77380524050568L406.0602271778453,242.25489110437414L409.6221589951948,241.2344693975668L413.18409081254435,238.73800994014925L416.7460226298939,234.61755644173488L420.30795444724345,246.5716716040571L423.86988626459294,231.74281399008578L427.4318180819424,240.384827345556L430.993749899292,241.850860470872L434.5556817166415,234.56267621489587L438.117613533991,243.66107674144385L441.6795453513405,242.1605031229951L445.2414771686901,240.98096881691438L448.8034089860396,241.67682605809685L452.3653408033891,235.56901733795587L455.9272726207386,242.0728149357319L459.4892044380881,239.7707796979954L463.0511362554377,241.33497632394563L466.6130680727872,244.26296661612443L470.1749998901367,246.11082791820866L473.7369317074862,240.83690822146207L477.2988635248358,242.5322365427097L480.86079534218527,243.20544066836115L484.42272715953476,234.8246391662926L487.98465897688425,240.0951639001015L491.54659079423385,241.87056928226232L495.10852261158334,241.39683675481868L498.6704544289328,241.61055918565276L502.2323862462824,244.3229743386097L505.7943180636319,241.10550086449518L509.35624988098147,242.39204159827193L512.918181698331,237.64324956111093L516.4801135156804,244.37035360013803L520.04204533303,246.1107578157291L523.6039771503795,246.62024260773754L527.165908967729,244.46838691045312L530.7278407850786,244.3154132854594L534.289772602428,243.38544380653704L537.8517044197777,250.02758364036302L541.4136362371271,249.17649948020173L544.9755680544766,249.6606872917366L548.5374998718261,242.79123516068591L552.0994316891757,250.11508154946745L555.6613635065252,247.18098232692884L559.2232953238747,244.5885425603827L562.7852271412243,240.69994800572306L566.3471589585738,238.97996364095764L569.9090907759233,244.41621063639636L573.4710225932728,243.48262587245776L577.0329544106223,237.7675412573333L580.5948862279719,241.88929665893917L584.1568180453214,243.13655997489425L587.7187498626708,248.5190684124465L591.2806816800204,244.9245137008926L594.8426134973698,245.25331435920964L598.4045453147195,243.89885433739968L601.9664771320689,245.8760346849532L605.5284089494185,249.72981835120183L609.090340766768,249.50331723981182L612.6522725841176,240.31231133779303L616.2142044014671,242.78917214485952L619.7761362188165,239.90246219848916L623.3380680361661,249.93690107575958L626.8999998535156,249.8836031620302L630.4619316708652,243.20263656917962L634.0238634882146,244.09883668224413L637.5857953055641,245.31443370672756L641.1477271229137,244.88056946086166L644.7096589402632,247.59306473093804L648.2715907576127,244.50425935069714L651.8335225749622,244.31765656480468L655.3954543923118,246.23253583732802L658.9573862096613,240.0084271036321L662.5193180270109,241.7728163818654L666.0812498443603,249.6501218466061L669.6431816617098,244.2965056452638L673.2051134790594,249.17277403414622L676.7670452964089,244.5276735788631L680.3289771137584,243.47494464362828L683.8909089311079,244.8430145611087L687.4528407484574,173.05009384530422L691.014772565807,181.29157167660927" fill="none"></path></g><g><path style="fill: none;" stroke="rgb(51, 187, 238)" stroke-width="2px" d="M71.2742556651639,79.46516641325411L74.80056816433994,254.98772463869375L78.36249998168945,252.4089648702976L81.92443179903897,260.064686411856L85.48636361638849,253.98425771729484L89.048295433738,253.8956982563574L92.61022725108754,255.15834405925136L96.17215906843705,254.81144694657337L99.73409088578656,254.6988823937138L103.29602270313609,260.1011096572963L106.8579545204856,261.2083683069725L110.41988633783512,260.836154184541L113.98181815518465,255.9298919490559L117.54374997253417,255.71828260724791L121.10568178988369,271.7140660956228L124.6676136072332,271.16481316843596L128.22954542458274,255.7912192298881L131.79147724193226,255.7094997680257L135.35340905928177,253.40444010902905L138.9153408766313,256.2183836816381L142.47727269398084,256.7922826377028L146.03920451133035,272.0639475710012L149.60113632867987,260.0366454200404L153.1630681460294,256.215349245738L156.7249999633789,254.348610347378L160.28693178072842,254.73474481931794L163.84886359807794,264.76654984628567L167.41079541542746,263.0491592732632L170.97272723277698,259.69319334349973L174.5346590501265,260.2192022913995L178.096590867476,261.0780878560695L181.65852268482553,268.58140660711035L185.22045450217507,258.10480134746865L188.7823863195246,259.40001475942836L192.3443181368741,260.8065609235357L195.90624995422363,269.13142064693227L199.46818177157311,260.54497852845645L203.03011358892266,261.18705715319265L206.59204540627218,259.7553842574906L210.15397722362172,260.2526411741395L213.7159090409712,261.0346243187554L217.27784085832076,259.6442618127816L220.83977267567025,263.2729063586713L224.4017044930198,268.59510663454023L227.9636363103693,262.07206089881083L231.52556812771886,261.7073677709699L235.08749994506834,268.887624252376L238.6494317624179,259.8016018207866L242.21136357976738,259.36505365141835L245.77329539711693,260.8296747125036L249.3352272144664,267.81818088309115L252.89715903181596,270.97303281369756L256.4590908491655,271.74499130373937L260.021022666515,262.6896236849883L263.5829544838645,261.6215122628147L267.144886301214,262.88592064233706L270.70681811856355,270.2870900660499L274.26874993591304,263.2954192692432L277.8306817532626,261.54086436742523L281.3926135706121,271.420797379792L284.9545453879617,271.8116687764208L288.51647720531116,261.73260466360387L292.0784090226607,262.81647912903384L295.6403408400102,261.64832145391836L299.20227265735974,269.13784003113L302.76420447470923,270.95331398766723L306.3261362920588,262.8035201849591L309.88806810940827,261.9380349725725L313.4499999267578,262.9942990757041L317.0119317441073,263.88224712546287L320.57386356145685,262.366481298234L324.13579537880634,270.9890362083123L327.6977271961559,262.8811136151686L331.2596590135054,268.27627054295766L334.8215908308549,265.5505158896085L338.38352264820446,243.54575816260243L341.94545446555395,241.06461108964416L345.5073862829035,245.29987242026334L349.069318100253,240.17706362548276L352.63124991760253,240.8525010158395L356.193181734952,240.5066554403546L359.75511355230157,237.58622620132607L363.31704536965105,240.8248606096213L366.8789771870006,240.23046168561146L370.44090900435015,240.51052109136916L374.0028408216997,244.5147546933481L377.5647726390492,240.0813136530726L381.1267044563987,243.6369314445627L384.6886362737482,240.3884025720125L388.25056809109776,240.17691340588374L391.81249990844725,243.35557013561356L395.37443172579674,244.30303519050085L398.93636354314623,239.61873743451557L402.49829536049583,239.31927967120552L406.0602271778453,241.7586056077989L409.6221589951948,239.7678654377746L413.18409081254435,243.1347172811464L416.7460226298939,240.66904282688634L420.30795444724345,240.12112184681075L423.86988626459294,240.17383891142393L427.4318180819424,241.6995292468275L430.993749899292,237.74632023531288L434.5556817166415,240.1372854756644L438.117613533991,244.86913274205688L441.6795453513405,240.87561480480747L445.2414771686901,240.61544447395895L448.8034089860396,240.81782031774765L452.3653408033891,239.38081963360068L455.9272726207386,245.12738026203806L459.4892044380881,240.42428502689643L463.0511362554377,240.30930694581278L466.6130680727872,239.65061403342588L470.1749998901367,242.66758440141936L473.7369317074862,245.5576392375277L477.2988635248358,239.4679970742272L480.86079534218527,244.8825223156488L484.42272715953476,242.94645206502489L487.98465897688425,240.8271739914461L491.54659079423385,239.77895164418166L495.10852261158334,237.90992940791662L498.6704544289328,240.5778995888459L502.2323862462824,239.31645554274408L505.7943180636319,239.5414945167037L509.35624988098147,239.24087505516127L512.918181698331,244.2272443954794L516.4801135156804,246.45001375813737L520.04204533303,243.83621276461176L523.6039771503795,244.46585320654978L527.165908967729,244.30566904080354L530.7278407850786,243.80673967928564L534.289772602428,247.34799647711017L537.8517044197777,243.80056064644626L541.4136362371271,244.35084508154634L544.9755680544766,242.78530649384493L548.5374998718261,248.3774213452183L552.0994316891757,248.52876258390276L555.6613635065252,246.82519221398934L559.2232953238747,243.2731396343158L562.7852271412243,243.93894294105596L566.3471589585738,248.67578751277554L569.9090907759233,242.67896103238448L573.4710225932728,241.82813725286147L577.0329544106223,248.48653084730054L580.5948862279719,245.6633337473924L584.1568180453214,248.50671034676782L587.7187498626708,243.76268527821546L591.2806816800204,248.42454022610835L594.8426134973698,243.5013632637745L598.4045453147195,245.45023222423424L601.9664771320689,244.3827316950966L605.5284089494185,246.92954476210286L609.090340766768,248.29920700733283L612.6522725841176,247.91913139255306L616.2142044014671,247.01894545279478L619.7761362188165,247.09365466670332L623.3380680361661,244.2157676181149L626.8999998535156,244.49542643827525L630.4619316708652,244.15572985170988L634.0238634882146,243.7961241609555L637.5857953055641,244.36910177014624L641.1477271229137,248.71934118184905L644.7096589402632,247.79582113104425L648.2715907576127,245.24317954359628L651.8335225749622,243.06117978011014L655.3954543923118,244.76593187753576L658.9573862096613,248.89732136275825L662.5193180270109,243.91064156860213L666.0812498443603,246.57664888010433L669.6431816617098,246.82558278494676L673.2051134790594,244.0846158935377L676.7670452964089,243.2177186169204L680.3289771137584,244.17189348056354L683.8909089311079,244.18292961377094L687.4528407484574,180.63517211676728" fill="none"></path></g><g><path style="fill: none;" stroke="rgb(0, 119, 187)" stroke-width="2px" d="M71.2742556651639,72.94447411790924L74.80056816433994,255.8113486561557L78.36249998168945,263.8830082380979L81.92443179903897,256.9746191869833L85.48636361638849,259.27179732435184L89.048295433738,258.55529991026515L92.61022725108754,273.2458052735466L96.17215906843705,272.8894543407707L99.73409088578656,269.5176853091913L103.29602270313609,254.77842867871055L106.8579545204856,254.45368394956682L110.41988633783512,259.89756210063535L113.98181815518465,258.78792998129484L117.54374997253417,273.6037785779917L121.10568178988369,258.5751288973347L124.6676136072332,258.5655849454775L128.22954542458274,258.86507275270736L131.79147724193226,257.8956255631647L135.35340905928177,258.67218077293626L138.9153408766313,271.9520339697374L142.47727269398084,273.97043457525973L146.03920451133035,256.0546643479951L149.60113632867987,252.17151775745958L153.1630681460294,261.91730466790887L156.7249999633789,259.22714204488557L160.28693178072842,273.86929672656504L163.84886359807794,261.4870456924192L167.41079541542746,257.3064142226407L170.97272723277698,261.10009002000476L174.5346590501265,258.1374490736539L178.096590867476,261.380059294003L181.65852268482553,260.8688820278457L185.22045450217507,262.041626408051L188.7823863195246,266.6943680336039L192.3443181368741,260.1272478675244L195.90624995422363,260.5941103519732L199.46818177157311,269.802301376119L203.03011358892266,261.10519748637114L206.59204540627218,260.903642843057L210.15397722362172,269.97938023943414L213.7159090409712,269.6673240590869L217.27784085832076,263.14002210138545L220.83977267567025,260.57127697292344L224.4017044930198,270.0075714508487L227.9636363103693,262.20913127558913L231.52556812771886,269.8987724026043L235.08749994506834,261.85028669746976L238.6494317624179,267.0365582655129L242.21136357976738,269.6611350116076L245.77329539711693,264.9267540413118L249.3352272144664,270.5650964706211L252.89715903181596,262.7069590267143L256.4590908491655,265.19544683074423L260.021022666515,270.9016184163273L263.5829544838645,262.89736737578176L267.144886301214,262.1254589589396L270.70681811856355,261.3767945213845L274.26874993591304,270.0371546972141L277.8306817532626,259.05308760283054L281.3926135706121,260.64059831054743L284.9545453879617,258.9535520965253L288.51647720531116,261.01137032482836L292.0784090226607,260.71841206283557L295.6403408400102,261.1454162803466L299.20227265735974,261.4067082508677L302.76420447470923,260.6452451034769L306.3261362920588,263.3584013397889L309.88806810940827,268.5842808087715L313.4499999267578,269.6290981784583L317.0119317441073,252.22314322631996L320.57386356145685,259.43329340792945L324.13579537880634,261.8251900097948L327.6977271961559,268.9064317461723L331.2596590135054,259.36925980019066L334.8215908308549,264.22793246670886L338.38352264820446,234.49354515543064L341.94545446555395,238.22941645109495L345.5073862829035,238.6866849104869L349.069318100253,238.4630279568382L352.63124991760253,238.28815231430858L356.193181734952,238.88464429806467L359.75511355230157,240.5578803236176L363.31704536965105,243.2547327261169L366.8789771870006,232.67052016038303L370.44090900435015,244.40336185336085L374.0028408216997,242.00304293931092L377.5647726390492,238.7621452223905L381.1267044563987,238.88749847044588L384.6886362737482,242.78930233517863L388.25056809109776,242.0935051818358L391.81249990844725,241.08246719264673L395.37443172579674,238.6485591762577L398.93636354314623,233.70422127974305L402.49829536049583,240.37441212002452L406.0602271778453,232.25274944089128L409.6221589951948,235.33051868792475L413.18409081254435,242.94145475969773L416.7460226298939,239.2503889630987L420.30795444724345,239.5161574776704L423.86988626459294,241.70320461968333L427.4318180819424,240.9102354150597L430.993749899292,237.69995245241793L434.5556817166415,239.06734137438283L438.117613533991,238.4501791738027L441.6795453513405,237.88452226640376L445.2414771686901,238.22400854553052L448.8034089860396,242.65666844389114L452.3653408033891,233.77626659942914L455.9272726207386,243.66376066494618L459.4892044380881,243.0157333440891L463.0511362554377,236.04425206138964L466.6130680727872,240.6532397250703L470.1749998901367,240.52758603781692L473.7369317074862,237.2636446344081L477.2988635248358,239.73658971726033L480.86079534218527,240.00723536147993L484.42272715953476,244.72672456219368L487.98465897688425,237.51175733877594L491.54659079423385,243.79195807074288L495.10852261158334,242.52417475756272L498.6704544289328,239.38680838828125L502.2323862462824,241.02026626401587L505.7943180636319,240.4174951010211L509.35624988098147,238.8810390276884L512.918181698331,244.77936150968742L516.4801135156804,246.9776550923464L520.04204533303,245.21629023537318L523.6039771503795,246.0739540139712L527.165908967729,241.02052664465418L530.7278407850786,244.7287775633802L534.289772602428,243.97744923160266L537.8517044197777,248.35017150995756L541.4136362371271,245.48314033105774L544.9755680544766,246.8968269334381L548.5374998718261,245.18936086859034L552.0994316891757,243.9541251351961L555.6613635065252,241.88117478595257L559.2232953238747,242.51860661775936L562.7852271412243,242.35028054974666L566.3471589585738,242.76756055188164L569.9090907759233,240.7813770430274L573.4710225932728,244.10925190777562L577.0329544106223,247.6956647170631L580.5948862279719,247.64308785740897L584.1568180453214,242.40510068874605L587.7187498626708,242.2127795434512L591.2806816800204,242.19242979510503L594.8426134973698,244.02376694129796L598.4045453147195,237.57533027307772L601.9664771320689,248.60630594091265L605.5284089494185,241.9122902722279L609.090340766768,239.36392493603182L612.6522725841176,239.43757259810732L616.2142044014671,240.87229995898926L619.7761362188165,239.11236719552664L623.3380680361661,242.8550584609861L626.8999998535156,242.51561224041905L630.4619316708652,242.18248525765046L634.0238634882146,245.7995028065766L637.5857953055641,244.00513971102052L641.1477271229137,244.16433242741326L644.7096589402632,243.78554870118504L648.2715907576127,245.67953743480578L651.8335225749622,242.1552554516696L655.3954543923118,244.41312612729664L658.9573862096613,245.63473193574055L662.5193180270109,248.72699236675874L666.0812498443603,244.7269048257125L669.6431816617098,244.5872005986315L673.2051134790594,245.403143387264L676.7670452964089,246.50774815735758L680.3289771137584,244.61402981901503L683.8909089311079,244.53904019518833L687.4528407484574,181.23666140585053" fill="none"></path></g><g><path style="fill: none;" stroke="rgb(255, 112, 67)" stroke-width="2px" d="M71.2742556651639,85.3924111753829L74.80056816433994,274.72267423927127L78.36249998168945,275.24149267569834L81.92443179903897,282.9566511052657L85.48636361638849,284.28792723562816L89.048295433738,276.4499692911886L92.61022725108754,273.56043521635684L96.17215906843705,278.7071890152199L99.73409088578656,276.7577692495638L103.29602270313609,281.83945793277496L106.8579545204856,285.51932736192765L110.41988633783512,275.79570284965257L113.98181815518465,286.0090232254263L117.54374997253417,284.8959460699484L121.10568178988369,276.5339019884765L124.6676136072332,275.92682453031L128.22954542458274,275.74677131893446L131.79147724193226,285.32523362536443L135.35340905928177,285.84210922164425L138.9153408766313,274.23502136231923L142.47727269398084,273.7640929340571L146.03920451133035,281.8656362015627L149.60113632867987,281.92562389476814L153.1630681460294,284.7117968708398L156.7249999633789,285.5337284141529L160.28693178072842,285.4329410778559L163.84886359807794,273.9522680184192L167.41079541542746,270.1465045506547L170.97272723277698,270.0093941153167L174.5346590501265,269.6525724944639L178.096590867476,276.0818511564902L181.65852268482553,269.50846182581193L185.22045450217507,270.6900791769989L188.7823863195246,269.2115077224854L192.3443181368741,276.0832732353608L195.90624995422363,273.7454356598598L199.46818177157311,270.62309125047955L203.03011358892266,274.1852185579268L206.59204540627218,267.0437287477057L210.15397722362172,270.62066770761555L213.7159090409712,274.69062739148205L217.27784085832076,270.4657913010343L220.83977267567025,275.7754031745061L224.4017044930198,275.5787456901198L227.9636363103693,271.44387111020023L231.52556812771886,275.5398888871754L235.08749994506834,275.8943370383637L238.6494317624179,274.5349898722659L242.21136357976738,274.15684708299347L245.77329539711693,273.8273353852411L249.3352272144664,270.1390937171035L252.89715903181596,271.19532777631525L256.4590908491655,273.2606269406491L260.021022666515,272.17916600344324L263.5829544838645,272.0412443822705L267.144886301214,275.8508935303295L270.70681811856355,273.6725691396992L274.26874993591304,271.5049103405987L277.8306817532626,274.4124907965918L281.3926135706121,275.3492802453093L284.9545453879617,275.39949364993896L288.51647720531116,273.9291041562516L292.0784090226607,271.7874834209798L295.6403408400102,270.0670183534976L299.20227265735974,270.4147366666502L302.76420447470923,276.2307287937508L306.3261362920588,270.08053811740865L309.88806810940827,273.967660519998L313.4499999267578,269.57872453958976L317.0119317441073,269.91448537266103L320.57386356145685,270.8619003543486L324.13579537880634,275.7953623518948L327.6977271961559,271.85769606155793L331.2596590135054,277.20957973019165L334.8215908308549,271.8535600152652L338.38352264820446,245.09585417552546L341.94545446555395,245.97199496480195L345.5073862829035,246.33460504753657L349.069318100253,246.0730426817372L352.63124991760253,245.93710395927144L356.193181734952,245.6050986161755L359.75511355230157,245.76347013209366L363.31704536965105,246.58381936229716L366.8789771870006,245.53567713215216L370.44090900435015,246.34164533941023L374.0028408216997,246.01028093327008L377.5647726390492,245.52557236045865L381.1267044563987,245.40354397286137L384.6886362737482,245.66859143335782L388.25056809109776,246.31021939929698L391.81249990844725,244.82319558867906L395.37443172579674,246.29634912298823L398.93636354314623,248.6451226852973L402.49829536049583,248.78161221295943L406.0602271778453,245.5882039186066L409.6221589951948,248.70030335133427L413.18409081254435,245.1661068746633L416.7460226298939,245.56123449326404L420.30795444724345,247.79534042832742L423.86988626459294,243.9258037334624L427.4318180819424,246.19036418856544L430.993749899292,248.74035189643084L434.5556817166415,247.4530200060993L438.117613533991,248.53738518888602L441.6795453513405,246.02856766578978L445.2414771686901,247.4328805651918L448.8034089860396,246.1644963736156L452.3653408033891,246.4825212793635L455.9272726207386,246.2428909750199L459.4892044380881,244.19232334602916L463.0511362554377,245.73886416177552L466.6130680727872,247.98941413561076L470.1749998901367,246.28911855295578L473.7369317074862,248.5139008582405L477.2988635248358,246.36818413523568L480.86079534218527,245.7764791493681L484.42272715953476,246.22623662880946L487.98465897688425,245.2165906745712L491.54659079423385,246.4079021972144L495.10852261158334,246.24253044798226L498.6704544289328,248.6998026193376L502.2323862462824,245.78460102235465L505.7943180636319,245.4358011280892L509.35624988098147,248.17317276376193L512.918181698331,251.64678066883147L516.4801135156804,247.78337293360616L520.04204533303,251.4741783495669L523.6039771503795,248.9848593304224L527.165908967729,249.59068495859708L530.7278407850786,249.09060391348677L534.289772602428,249.2303181552077L537.8517044197777,247.68425804217816L541.4136362371271,250.18320113029935L544.9755680544766,249.04695009801392L548.5374998718261,248.87179404556616L552.0994316891757,248.4555455513444L555.6613635065252,251.36864407394114L559.2232953238747,250.19382666326942L562.7852271412243,251.52566361346823L566.3471589585738,248.67294335503428L569.9090907759233,249.5505062231814L573.4710225932728,251.45990748766076L577.0329544106223,248.1078272381918L580.5948862279719,248.87825348832368L584.1568180453214,251.25419676877402L587.7187498626708,249.24545027614815L591.2806816800204,249.18713502781176L594.8426134973698,251.37954000218946L598.4045453147195,251.37057689944845L601.9664771320689,248.47913002838925L605.5284089494185,250.44107810860294L609.090340766768,248.8574731104604L612.6522725841176,250.174588539956L616.2142044014671,247.24521622746627L619.7761362188165,249.7232086888453L623.3380680361661,251.36792301986588L626.8999998535156,250.57782801690337L630.4619316708652,247.7803685416259L634.0238634882146,250.87271910440347L637.5857953055641,251.79710041424264L641.1477271229137,248.36435224010427L644.7096589402632,248.2782163220309L648.2715907576127,248.5709242180254L651.8335225749622,248.1080475602703L655.3954543923118,250.75393546014487L658.9573862096613,248.54653856978578L662.5193180270109,250.65891655644995L666.0812498443603,249.86330348688372L669.6431816617098,251.5449718392612L673.2051134790594,248.48129319061502L676.7670452964089,247.51215645491027L680.3289771137584,251.76964027154327L683.8909089311079,249.4126446898483L687.4528407484574,183.83788401161885L691.014772565807,183.73165872583766L694.5767043831564,184.17373497644957L698.138636200506,184.84808077105347L701.7005680178555,184.21975224694685L705.2624998352051,184.97338394590923L708.8244316525546,184.62383295364864L712.386363469904,183.49483252067557" fill="none"></path></g></g></g></g></g></g><g transform="translate(30, 378)" clip-path="url(#clip_1)"><clipPath id="clip_1"><rect width="783" height="21"></rect></clipPath><g><g><line x1="0" y1="0" x2="0" y2="5" style="visibility: inherit;" fill="rgb(0, 0, 0)" stroke="rgb(204, 204, 204)" stroke-width="1px"></line><line x1="71.23863634699042" y1="0" x2="71.23863634699042" y2="5" style="visibility: inherit;" fill="rgb(0, 0, 0)" stroke="rgb(204, 204, 204)" stroke-width="1px"></line><line x1="142.47727269398084" y1="0" x2="142.47727269398084" y2="5" style="visibility: inherit;" fill="rgb(0, 0, 0)" stroke="rgb(204, 204, 204)" stroke-width="1px"></line><line x1="213.7159090409712" y1="0" x2="213.7159090409712" y2="5" style="visibility: inherit;" fill="rgb(0, 0, 0)" stroke="rgb(204, 204, 204)" stroke-width="1px"></line><line x1="284.9545453879617" y1="0" x2="284.9545453879617" y2="5" style="visibility: inherit;" fill="rgb(0, 0, 0)" stroke="rgb(204, 204, 204)" stroke-width="1px"></line><line x1="356.193181734952" y1="0" x2="356.193181734952" y2="5" style="visibility: inherit;" fill="rgb(0, 0, 0)" stroke="rgb(204, 204, 204)" stroke-width="1px"></line><line x1="427.4318180819424" y1="0" x2="427.4318180819424" y2="5" style="visibility: inherit;" fill="rgb(0, 0, 0)" stroke="rgb(204, 204, 204)" stroke-width="1px"></line><line x1="498.6704544289328" y1="0" x2="498.6704544289328" y2="5" style="visibility: inherit;" fill="rgb(0, 0, 0)" stroke="rgb(204, 204, 204)" stroke-width="1px"></line><line x1="569.9090907759233" y1="0" x2="569.9090907759233" y2="5" style="visibility: inherit;" fill="rgb(0, 0, 0)" stroke="rgb(204, 204, 204)" stroke-width="1px"></line><line x1="641.1477271229137" y1="0" x2="641.1477271229137" y2="5" style="visibility: inherit;" fill="rgb(0, 0, 0)" stroke="rgb(204, 204, 204)" stroke-width="1px"></line><line x1="712.386363469904" y1="0" x2="712.386363469904" y2="5" style="visibility: inherit;" fill="rgb(0, 0, 0)" stroke="rgb(204, 204, 204)" stroke-width="1px"></line><line x1="783.6249998168945" y1="0" x2="783.6249998168945" y2="5" style="visibility: inherit;" fill="rgb(0, 0, 0)" stroke="rgb(204, 204, 204)" stroke-width="1px"></line></g><g transform="translate(0, 8)"><text style="text-anchor: middle; visibility: hidden; font-family: &quot;Helvetica Neue&quot;, sans-serif; font-size: 12px; font-weight: 200;" x="0" y="0" dx="0em" dy="0.95em" fill="rgb(50, 49, 63)" stroke="none" stroke-width="1px">-2k</text><text style="text-anchor: middle; visibility: inherit; font-family: &quot;Helvetica Neue&quot;, sans-serif; font-size: 12px; font-weight: 200;" x="71.23863634699042" y="0" dx="0em" dy="0.95em" fill="rgb(50, 49, 63)" stroke="none" stroke-width="1px">0</text><text style="text-anchor: middle; visibility: inherit; font-family: &quot;Helvetica Neue&quot;, sans-serif; font-size: 12px; font-weight: 200;" x="142.47727269398084" y="0" dx="0em" dy="0.95em" fill="rgb(50, 49, 63)" stroke="none" stroke-width="1px">2k</text><text style="text-anchor: middle; visibility: inherit; font-family: &quot;Helvetica Neue&quot;, sans-serif; font-size: 12px; font-weight: 200;" x="213.7159090409712" y="0" dx="0em" dy="0.95em" fill="rgb(50, 49, 63)" stroke="none" stroke-width="1px">4k</text><text style="text-anchor: middle; visibility: inherit; font-family: &quot;Helvetica Neue&quot;, sans-serif; font-size: 12px; font-weight: 200;" x="284.9545453879617" y="0" dx="0em" dy="0.95em" fill="rgb(50, 49, 63)" stroke="none" stroke-width="1px">6k</text><text style="text-anchor: middle; visibility: inherit; font-family: &quot;Helvetica Neue&quot;, sans-serif; font-size: 12px; font-weight: 200;" x="356.193181734952" y="0" dx="0em" dy="0.95em" fill="rgb(50, 49, 63)" stroke="none" stroke-width="1px">8k</text><text style="text-anchor: middle; visibility: inherit; font-family: &quot;Helvetica Neue&quot;, sans-serif; font-size: 12px; font-weight: 200;" x="427.4318180819424" y="0" dx="0em" dy="0.95em" fill="rgb(50, 49, 63)" stroke="none" stroke-width="1px">10k</text><text style="text-anchor: middle; visibility: inherit; font-family: &quot;Helvetica Neue&quot;, sans-serif; font-size: 12px; font-weight: 200;" x="498.6704544289328" y="0" dx="0em" dy="0.95em" fill="rgb(50, 49, 63)" stroke="none" stroke-width="1px">12k</text><text style="text-anchor: middle; visibility: inherit; font-family: &quot;Helvetica Neue&quot;, sans-serif; font-size: 12px; font-weight: 200;" x="569.9090907759233" y="0" dx="0em" dy="0.95em" fill="rgb(50, 49, 63)" stroke="none" stroke-width="1px">14k</text><text style="text-anchor: middle; visibility: inherit; font-family: &quot;Helvetica Neue&quot;, sans-serif; font-size: 12px; font-weight: 200;" x="641.1477271229137" y="0" dx="0em" dy="0.95em" fill="rgb(50, 49, 63)" stroke="none" stroke-width="1px">16k</text><text style="text-anchor: middle; visibility: inherit; font-family: &quot;Helvetica Neue&quot;, sans-serif; font-size: 12px; font-weight: 200;" x="712.386363469904" y="0" dx="0em" dy="0.95em" fill="rgb(50, 49, 63)" stroke="none" stroke-width="1px">18k</text><text style="text-anchor: middle; visibility: hidden; font-family: &quot;Helvetica Neue&quot;, sans-serif; font-size: 12px; font-weight: 200;" x="783.6249998168945" y="0" dx="0em" dy="0.95em" fill="rgb(50, 49, 63)" stroke="none" stroke-width="1px">20k</text></g><line x1="0" y1="0" x2="783.6249998168945" y2="0" fill="rgb(0, 0, 0)" stroke="rgb(204, 204, 204)" stroke-width="1px"></line></g></g></g></g></svg>