<svg viewBox="0 0 330 200" xmlns="http://www.w3.org/2000/svg"><g><g><g><g><g><line x1="58.59375" y1="177.828125" x2="53.59375" y2="177.828125" style="visibility: inherit;" fill="rgb(0, 0, 0)" stroke="rgb(204, 204, 204)" stroke-width="1px"></line><line x1="58.59375" y1="155.59960937500003" x2="53.59375" y2="155.59960937500003" style="visibility: inherit;" fill="rgb(0, 0, 0)" stroke="rgb(204, 204, 204)" stroke-width="1px"></line><line x1="58.59375" y1="133.37109375" x2="53.59375" y2="133.37109375" style="visibility: inherit;" fill="rgb(0, 0, 0)" stroke="rgb(204, 204, 204)" stroke-width="1px"></line><line x1="58.59375" y1="111.14257812499999" x2="53.59375" y2="111.14257812499999" style="visibility: inherit;" fill="rgb(0, 0, 0)" stroke="rgb(204, 204, 204)" stroke-width="1px"></line><line x1="58.59375" y1="88.91406250000003" x2="53.59375" y2="88.91406250000003" style="visibility: inherit;" fill="rgb(0, 0, 0)" stroke="rgb(204, 204, 204)" stroke-width="1px"></line><line x1="58.59375" y1="66.685546875" x2="53.59375" y2="66.685546875" style="visibility: inherit;" fill="rgb(0, 0, 0)" stroke="rgb(204, 204, 204)" stroke-width="1px"></line><line x1="58.59375" y1="44.45703124999997" x2="53.59375" y2="44.45703124999997" style="visibility: inherit;" fill="rgb(0, 0, 0)" stroke="rgb(204, 204, 204)" stroke-width="1px"></line><line x1="58.59375" y1="22.22851562500003" x2="53.59375" y2="22.22851562500003" style="visibility: inherit;" fill="rgb(0, 0, 0)" stroke="rgb(204, 204, 204)" stroke-width="1px"></line><line x1="58.59375" y1="0" x2="53.59375" y2="0" style="visibility: inherit;" fill="rgb(0, 0, 0)" stroke="rgb(204, 204, 204)" stroke-width="1px"></line></g><g transform="translate(48.59375, 0)"><text x="0" y="177.828125" dx="0em" dy="0.3em" style="text-anchor: end; visibility: hidden; font-family: &quot;Helvetica Neue&quot;, sans-serif; font-size: 12px; font-weight: 200;" fill="rgb(50, 49, 63)" stroke="none" stroke-width="1px">0.085</text><text x="0" y="155.59960937500003" dx="0em" dy="0.3em" style="text-anchor: end; visibility: inherit; font-family: &quot;Helvetica Neue&quot;, sans-serif; font-size: 12px; font-weight: 200;" fill="rgb(50, 49, 63)" stroke="none" stroke-width="1px">0.09</text><text x="0" y="133.37109375" dx="0em" dy="0.3em" style="text-anchor: end; visibility: hidden; font-family: &quot;Helvetica Neue&quot;, sans-serif; font-size: 12px; font-weight: 200;" fill="rgb(50, 49, 63)" stroke="none" stroke-width="1px">0.095</text><text x="0" y="111.14257812499999" dx="0em" dy="0.3em" style="text-anchor: end; visibility: inherit; font-family: &quot;Helvetica Neue&quot;, sans-serif; font-size: 12px; font-weight: 200;" fill="rgb(50, 49, 63)" stroke="none" stroke-width="1px">0.1</text><text x="0" y="88.91406250000003" dx="0em" dy="0.3em" style="text-anchor: end; visibility: hidden; font-family: &quot;Helvetica Neue&quot;, sans-serif; font-size: 12px; font-weight: 200;" fill="rgb(50, 49, 63)" stroke="none" stroke-width="1px">0.105</text><text x="0" y="66.685546875" dx="0em" dy="0.3em" style="text-anchor: end; visibility: inherit; font-family: &quot;Helvetica Neue&quot;, sans-serif; font-size: 12px; font-weight: 200;" fill="rgb(50, 49, 63)" stroke="none" stroke-width="1px">0.11</text><text x="0" y="44.45703124999997" dx="0em" dy="0.3em" style="text-anchor: end; visibility: hidden; font-family: &quot;Helvetica Neue&quot;, sans-serif; font-size: 12px; font-weight: 200;" fill="rgb(50, 49, 63)" stroke="none" stroke-width="1px">0.115</text><text x="0" y="22.22851562500003" dx="0em" dy="0.3em" style="text-anchor: end; visibility: inherit; font-family: &quot;Helvetica Neue&quot;, sans-serif; font-size: 12px; font-weight: 200;" fill="rgb(50, 49, 63)" stroke="none" stroke-width="1px">0.12</text><text x="0" y="0" dx="0em" dy="0.3em" style="text-anchor: end; visibility: hidden; font-family: &quot;Helvetica Neue&quot;, sans-serif; font-size: 12px; font-weight: 200;" fill="rgb(50, 49, 63)" stroke="none" stroke-width="1px">0.125</text></g><line x1="58.59375" y1="0" x2="58.59375" y2="177.828125" fill="rgb(0, 0, 0)" stroke="rgb(204, 204, 204)" stroke-width="1px"></line></g></g><g transform="translate(58, 0)" clip-path="url(#clip_0)"><clipPath id="clip_0"><rect width="271" height="177"></rect></clipPath><g><g><g><line x1="0" y1="0" x2="0" y2="177.828125" fill="rgb(0, 0, 0)" stroke="rgb(60, 60, 60)" stroke-width="1px" opacity="0.25"></line><line x1="24.673295454545457" y1="0" x2="24.673295454545457" y2="177.828125" fill="rgb(0, 0, 0)" stroke="rgb(60, 60, 60)" stroke-width="1px" opacity="0.25"></line><line x1="49.346590909090914" y1="0" x2="49.346590909090914" y2="177.828125" fill="rgb(0, 0, 0)" stroke="rgb(60, 60, 60)" stroke-width="1px" opacity="0.25"></line><line x1="74.01988636363636" y1="0" x2="74.01988636363636" y2="177.828125" fill="rgb(0, 0, 0)" stroke="rgb(60, 60, 60)" stroke-width="1px" opacity="0.25"></line><line x1="98.69318181818183" y1="0" x2="98.69318181818183" y2="177.828125" fill="rgb(0, 0, 0)" stroke="rgb(60, 60, 60)" stroke-width="1px" opacity="0.25"></line><line x1="123.36647727272727" y1="0" x2="123.36647727272727" y2="177.828125" fill="rgb(0, 0, 0)" stroke="rgb(60, 60, 60)" stroke-width="1px" opacity="0.25"></line><line x1="148.03977272727272" y1="0" x2="148.03977272727272" y2="177.828125" fill="rgb(0, 0, 0)" stroke="rgb(60, 60, 60)" stroke-width="1px" opacity="0.25"></line><line x1="172.7130681818182" y1="0" x2="172.7130681818182" y2="177.828125" fill="rgb(0, 0, 0)" stroke="rgb(60, 60, 60)" stroke-width="1px" opacity="0.25"></line><line x1="197.38636363636365" y1="0" x2="197.38636363636365" y2="177.828125" fill="rgb(0, 0, 0)" stroke="rgb(60, 60, 60)" stroke-width="1px" opacity="0.25"></line><line x1="222.0596590909091" y1="0" x2="222.0596590909091" y2="177.828125" fill="rgb(0, 0, 0)" stroke="rgb(60, 60, 60)" stroke-width="1px" opacity="0.25"></line><line x1="246.73295454545453" y1="0" x2="246.73295454545453" y2="177.828125" fill="rgb(0, 0, 0)" stroke="rgb(60, 60, 60)" stroke-width="1px" opacity="0.25"></line><line x1="271.40625" y1="0" x2="271.40625" y2="177.828125" fill="rgb(0, 0, 0)" stroke="rgb(60, 60, 60)" stroke-width="1px" opacity="0.25"></line></g><g><line x1="0" y1="177.828125" x2="271.40625" y2="177.828125" fill="rgb(0, 0, 0)" stroke="rgb(60, 60, 60)" stroke-width="1px" opacity="0.25"></line><line x1="0" y1="155.59960937500003" x2="271.40625" y2="155.59960937500003" fill="rgb(0, 0, 0)" stroke="rgb(60, 60, 60)" stroke-width="1px" opacity="0.25"></line><line x1="0" y1="133.37109375" x2="271.40625" y2="133.37109375" fill="rgb(0, 0, 0)" stroke="rgb(60, 60, 60)" stroke-width="1px" opacity="0.25"></line><line x1="0" y1="111.14257812499999" x2="271.40625" y2="111.14257812499999" fill="rgb(0, 0, 0)" stroke="rgb(60, 60, 60)" stroke-width="1px" opacity="0.25"></line><line x1="0" y1="88.91406250000003" x2="271.40625" y2="88.91406250000003" fill="rgb(0, 0, 0)" stroke="rgb(60, 60, 60)" stroke-width="1px" opacity="0.25"></line><line x1="0" y1="66.685546875" x2="271.40625" y2="66.685546875" fill="rgb(0, 0, 0)" stroke="rgb(60, 60, 60)" stroke-width="1px" opacity="0.25"></line><line x1="0" y1="44.45703124999997" x2="271.40625" y2="44.45703124999997" fill="rgb(0, 0, 0)" stroke="rgb(60, 60, 60)" stroke-width="1px" opacity="0.25"></line><line x1="0" y1="22.22851562500003" x2="271.40625" y2="22.22851562500003" fill="rgb(0, 0, 0)" stroke="rgb(60, 60, 60)" stroke-width="1px" opacity="0.25"></line><line x1="0" y1="0" x2="271.40625" y2="0" fill="rgb(0, 0, 0)" stroke="rgb(60, 60, 60)" stroke-width="1px" opacity="0.25"></line></g></g></g><g><g><line x1="0" y1="555.712890625" x2="271.40625" y2="555.712890625" fill="rgb(0, 0, 0)" stroke="rgb(153, 153, 153)" stroke-width="1.5px"></line></g></g><g><g><line x1="24.673295454545457" y1="0" x2="24.673295454545457" y2="177.828125" fill="rgb(0, 0, 0)" stroke="rgb(153, 153, 153)" stroke-width="1.5px"></line></g></g><g><g><g><g><g><path stroke="rgb(255, 112, 67)" stroke-width="2px" d="M29.8546875,-5.244557398755774L30.101420454545455,1.2820691133559308L30.22478693181818,2.0295443510254074L30.471519886363637,3.769064645806793L30.718252840909088,0.21388628101652785L30.841619318181817,6.957108929937817L31.211718750000003,10.06475808570346L31.335085227272724,11.197893319942466L31.458451704545453,16.1939508032809L31.581818181818182,18.85213798901046L31.70518465909091,17.492047250753757L32.07528409090909,21.17654428545248L32.19865056818182,17.21477096080031L32.383700284090914,14.156392095286378L32.630433238636364,11.046961360734713L32.75379971590909,17.343728375535278L32.87716619318182,15.905289251696303L33.00053267045455,16.545231444454572L33.37063210227273,11.934807583848624L33.493998579545455,13.668163281538455L33.61736505681819,17.08284904457676L33.740731534090905,23.36826007534492L33.98746448863636,22.565846761259905L34.357563920454545,24.768930807576453L34.974396306818186,31.938288167722305L35.097762784090904,32.16890510810947L35.221129261363636,27.578546383009495L35.34449573863636,31.66298631168985L35.467862215909086,38.34248579388631L35.59122869318182,33.80340012698181L36.20806107954546,35.16558659808723L37.194992897727275,34.29623203702417L37.56509232954545,33.79801743664348L37.68845880681818,39.39303415153512L38.55202414772727,45.90528152945035L38.922123579545456,42.7526464428727L39.16885653409091,45.927835077456706L39.29222301136364,41.32223798084317L39.415589488636364,43.3083966502806L39.90905539772727,44.87888727409094L40.032421875,40.89586071759791L40.09410511363637,41.348931587839644L40.46420454545454,40.57022959030874L40.58757102272727,47.290515722463056L40.95767045454546,46.27743446113817L41.451136363636365,47.688436786882335L41.697869318181816,49.93227524524873L41.94460227272727,51.580090996792606L42.06796875,54.5421204328437L42.19133522727273,58.37314063988957L42.314701704545456,59.57961891844877L42.561434659090914,59.7423878399954L42.808167613636364,58.95294714710606L43.054900568181814,59.89970594290229L43.425000000000004,57.19167766484192L43.54836647727273,55.11836108852222L43.671732954545455,59.35190663803205L43.918465909090905,54.39986064433023L44.04183238636363,54.46437561177032L44.16519886363636,54.46288643515858L44.535298295454545,55.12980700606968L44.78203125,59.6456332191631L44.90539772727273,60.04319169682215L45.15213068181818,62.948518101169256L45.275497159090904,63.665759990855975L45.64559659090909,65.64708622671363L46.1390625,68.20550764046055L46.26242897727273,66.57831429823155L46.38579545454545,64.58330491679442L46.50916193181818,64.94516368050519L46.755894886363635,61.47153430145278L46.87926136363637,60.5923076942119L47.12599431818182,54.81969393591527L47.372727272727275,58.609627415167964L47.49609375,62.20986170166512L47.619460227272725,55.26927995341845L47.74282670454545,63.96884463937968L47.92787642045455,65.86970488969804L48.05124289772727,72.5613692447205L48.91480823863637,74.44622326186695L49.40827414772727,68.47565557743884L49.901740056818184,69.78386992387378L50.02510653409091,65.96213477822336L50.14847301136364,72.48156581145899L50.64193892045454,71.32095631534533L50.765305397727275,72.85576057534466L51.012038352272725,76.85274284281464L51.382137784090915,71.14265653902478L51.50550426136363,71.36187804429868L51.875603693181816,71.20619418771052L51.99897017045455,59.68402649166643L52.245703125,63.466164997122945L52.36906960227273,69.06878156916004L52.492436079545456,70.76223398755914L52.73916903409091,69.40106274468812L52.86253551136363,71.39750228674333L52.985901988636364,73.09494139454063L53.10926846590909,73.5711669632125L53.23263494318182,73.9525219812831L53.35600142045455,72.53448247788455L53.72610085227273,55.53213465723195L54.096200284090905,56.742683326110125L54.58966619318182,64.06357716740025L54.713032670454545,63.678481683426966L54.959765625,71.03183884023505L55.20649857954545,71.87380896209069L55.32986505681818,74.758459599381L55.885014204545456,76.82885418813845L56.25511363636364,79.34403699853567L56.378480113636364,77.02381512494641L56.501846590909096,79.5913594634917L56.62521306818182,78.13835554265563L56.87194602272727,82.23965083629729L57.36541193181818,84.27312716744224L57.61214488636364,79.26444625586456L57.858877840909095,74.93843544104433L58.105610795454545,79.63854272608077L58.722443181818186,76.48986973119182L58.969176136363636,79.67089366923585L59.462642045454544,75.78462703304294L60.079474431818184,80.59858631759093L60.326207386363635,80.84685451531121L60.44957386363636,82.99765450801678L60.81967329545454,72.06655658059367L61.06640625,70.86520982659195L61.18977272727273,75.78050402752915L61.31313920454546,80.04320898991554L61.55987215909091,77.94745143669388L61.68323863636363,77.12686369225592L61.806605113636365,81.02150260255988L62.30007102272727,83.75741893552805L62.423437500000006,82.90977006668189L62.67017045454545,81.2361496484762L63.04026988636364,85.13054813744974L63.47205255681818,90.22637866310318L63.59541903409091,92.75822711566563L63.718785511363635,83.85354598123456L63.84215198863637,87.5982766390827L64.08888494318182,83.91466793615663L64.458984375,84.93100765959723L64.58235085227273,89.76694417618623L64.70571732954545,83.60543807133715L65.07581676136364,85.16091252688503L65.19918323863637,84.32011235162916L65.44591619318182,91.78730837236529L66.18611505681818,88.75947409269997L66.43284801136363,83.37453124764916L66.80294744318182,81.79351837415949L66.92631392045455,79.05811979204277L67.173046875,83.6702114213362L67.29641335227272,88.14147608178362L67.91324573863636,88.14008707191242L68.03661221590909,80.5140183480162L68.28334517045454,85.57819726284687L68.530078125,78.64822411833764L68.65344460227273,86.8286498452172L68.77681107954545,91.2928706616224L69.14691051136363,90.22253415192844L69.27027698863637,89.25026748372834L69.3936434659091,87.27239976081053L69.64037642045454,90.67019017172781L69.76374289772727,89.89343001409506L70.01047585227272,87.69530237221205L70.13384232954546,81.72623832032299L70.38057528409091,84.95712883689755L70.62730823863637,87.85317158906724L70.87404119318181,92.45316040933882L70.93572443181817,87.95015227095485L71.05909090909091,86.86296453098367L71.30582386363638,91.89821414102563L71.42919034090909,91.4200573619236L71.79928977272726,85.76966390263833L71.92265625,91.80885023913487L72.04602272727273,87.49464368593591L72.16938920454545,90.70133198373034L72.41612215909092,90.23427007469732L72.53948863636364,90.3861564932284L72.66285511363635,89.79497961228067L72.7862215909091,88.44052650333366L73.89651988636363,91.5118657608292L74.01988636363636,93.45890099024913L74.26661931818181,92.09225337112632L74.63671875,87.00222417627462L75.50028409090909,93.06064129686357L75.62365056818182,88.93772548737225L76.11711647727273,92.20060014616081L76.24048295454544,96.09268569843846L76.36384943181818,99.46059509198182L76.61058238636365,98.909917351896L76.8573153409091,102.1081510432702L77.35078125,103.12548130786148L78.46107954545454,100.93352205024908L78.58444602272728,99.45132673032316L78.64612926136364,92.24056447980205L78.76949573863637,92.18616163548953L79.01622869318182,90.32046276748142L79.13959517045454,91.29446118314542L79.50969460227273,89.51309136988841L79.8797940340909,92.92456210090738L80.61999289772727,97.02148430424532L80.743359375,96.42261680277686L80.86672585227274,93.92961416221219L80.99009232954545,93.7716666018963L81.11345880681819,94.58331748562313L81.36019176136362,94.9434996568043L81.48355823863636,98.9675827641639L81.60692471590909,99.4495400126917L81.85365767045454,100.25184370438862L81.97702414772728,102.25919247940915L82.100390625,103.07429968464629L82.34712357954545,104.13361077131594L82.5938565340909,102.129580271737L82.71722301136363,102.35073849973044L83.21068892045454,105.83551456259434L84.07425426136363,106.69515596144015L84.44435369318182,105.53904724600793L84.56772017045455,107.740285289139L84.814453125,109.11515121048714L85.06118607954545,109.69301241293601L85.43128551136363,98.9584195015415L86.29485085227272,98.91910765058866L86.72663352272727,103.03065752616831L87.09673295454546,105.79414491685144L87.22009943181818,102.73938103711625L87.34346590909091,98.07960122460922L87.59019886363637,98.32460335191593L87.83693181818181,96.20349582358973L87.96029829545455,98.73937482803929L88.20703125,98.09925097118798L88.82386363636364,101.83334138244605L88.94723011363635,100.32691401383036L89.68742897727273,99.61082564871835L89.93416193181818,99.87751229393342L90.05752840909092,101.92144522791938L90.18089488636363,100.38096875161432L90.30426136363636,99.8616057651557L90.4276278409091,103.55159924189404L90.55099431818181,103.4971022956213L90.67436079545455,105.55555624637658L90.79772727272727,107.78082290398085L90.92109375000001,107.24262158622481L91.04446022727272,110.27383555194447L91.29119318181819,107.56430910784987L91.66129261363636,105.54152713414054L91.78465909090909,104.9454044566066L91.90802556818181,107.1919725635021L92.15475852272728,100.62596418717473L92.64822443181818,103.5094199835857L92.89495738636364,99.7191364619549L93.1416903409091,102.03252471603328L93.26505681818182,109.47314939699253L93.63515625,106.40654389400103L93.75852272727273,104.6694475966678L93.88188920454544,101.90080218968086L94.06693892045455,105.57750358001955L94.313671875,104.44637516785981L94.56040482954545,106.40609634318913L94.80713778409091,103.8574386279596L94.93050426136364,104.50367445523109L95.30060369318181,105.0621984976411L95.54733664772728,111.03823789533631L95.67070312499999,112.61758396857473L95.79406960227273,107.56297344801426L95.91743607954545,110.2774174131552L96.04080255681819,105.92090413465762L96.1641690340909,110.59829794863785L96.41090198863637,106.91939623085736L96.53426846590908,107.30519406072763L97.15110085227273,108.18110194850136L97.27446732954546,108.2446858562606L97.52120028409091,105.44053236280101L97.64456676136365,103.5119623592207L97.76793323863636,101.0056249940725L97.89129971590908,111.29412551805125L98.13803267045454,109.894364711868L98.384765625,110.39013638191432L98.63149857954545,113.45561480191093L98.87823153409092,108.77277074220324L99.12496448863637,108.50706178109188L99.37169744318182,115.39611958803249L99.49506392045454,118.54518964526775L99.61843039772728,112.45007730431993L99.98852982954546,112.29707291765031L100.48199573863637,109.9725369191033L100.60536221590908,106.49864050336663L100.85209517045455,105.03081572084974L100.97546164772727,109.81494743049872L101.22219460227272,111.77206444101654L101.71566051136364,108.20467451199475L101.77734375,105.20648554829073L102.02407670454545,107.04412746573874L102.27080965909092,108.03306074033534L103.134375,109.78298554544178L103.25774147727272,109.83473035854935L103.50447443181818,108.65235996967381L103.6278409090909,109.19412856148121L103.75120738636363,112.23964040681457L103.87457386363637,112.11994699371076L103.9979403409091,106.07938033070987L104.12130681818181,105.26457883073172L104.36803977272727,110.16923332193961L104.49140625,110.10320588384626L104.98487215909091,110.41730405495615L105.10823863636364,105.28136203696835L105.35497159090909,109.39105368830934L105.60170454545455,111.52019255206947L105.97180397727273,108.07117285157011L106.21853693181818,108.00933702097136L106.34190340909092,110.86852996391907L106.46526988636364,109.4726235769636L106.83536931818182,110.21473217574567L106.95873579545454,115.23316704070567L107.08210227272727,110.97624481949056L107.20546875000001,107.10378007371001L107.32883522727272,114.92298256646302L107.57556818181818,114.77061288525402L107.6989346590909,114.33015341996807L107.82230113636363,111.76015437842699L108.0690340909091,110.96194010245456L108.19240056818181,102.9023598703677L108.31576704545455,107.64430625123698L108.43913352272727,108.5483959642711L108.5625,114.40995102163446L108.68586647727273,122.28676769298715L108.93259943181818,118.78519324002733L109.0559659090909,121.58394549250946L109.42606534090909,121.07584208259007L109.85784801136364,121.2726090495081L110.22794744318182,116.13163999885757L110.35131392045456,117.18638231059609L110.47468039772727,117.07501857339821L110.598046875,114.58773865616016L110.72141335227273,114.68234995973336L110.84477982954544,116.01834293298634L110.96814630681818,113.79957850672618L111.09151278409091,114.6695995507725L111.33824573863636,113.24488989067974L111.4616122159091,113.58983466675376L111.58497869318182,117.71173635289364L112.07844460227273,117.19870016203063L112.57191051136364,117.19464349275896L112.69527698863637,117.47105273899325L112.94200994318182,117.7670851988719L113.06537642045454,120.83130068137316L113.18874289772728,115.36843227822897L113.31210937499999,113.9635293303222L113.43547585227273,116.19745572825947L113.55884232954546,115.84519622003882L113.92894176136365,115.40146230912347L114.05230823863636,116.88449100753229L114.17567471590908,117.76492777331138L114.79250710227274,119.76211846720075L115.03924005681819,122.42396908225098L115.16260653409091,120.91396329758452L115.28597301136362,116.5923089058422L115.40933948863636,118.60653649187483L115.65607244318183,112.31343977145377L116.026171875,117.05199923175289L116.14953835227273,116.84916394042725L116.5196377840909,116.3677462314829L116.64300426136363,109.78715531622713L116.76637073863637,113.46602346921358L117.01310369318182,111.4137706275714L117.1981534090909,109.89452645221697L117.56825284090908,110.92587320669725L117.69161931818182,114.67190974084764L117.93835227272727,113.35173985783071L118.30845170454546,109.76795938924175L118.43181818181817,116.31949242909198L118.55518465909091,113.07679011303973L118.80191761363636,117.5254182886093L118.92528409090909,121.61083164950327L119.04865056818183,118.9515477801643L119.17201704545454,122.37983289631838L119.29538352272728,123.07682373160017L119.41875,115.40272113719666L119.54211647727273,118.32613957282169L119.66548295454545,118.45129082359381L120.03558238636363,113.40816513607096L120.15894886363637,118.46691551624684L120.65241477272727,121.57742135812647L120.77578125000001,122.70833972471281L121.02251420454546,116.92220828460056L121.26924715909091,117.14165828541756L121.51598011363637,119.48295499920977L121.63934659090908,117.90664352840449L121.76271306818181,118.41502564059951L121.88607954545455,117.7958020274122L122.00944602272726,117.21474457143236L122.1328125,115.869635676727L122.37954545454546,118.23687332765815L122.62627840909092,118.38372664273527L122.87301136363635,114.579374501596L123.24311079545454,115.10779887747361L123.36647727272727,117.71935476944245L123.48984375,117.61565342652293L123.61321022727273,116.2930998284723L123.73657670454546,119.89866902079686L124.23004261363636,118.3977246067837L124.47677556818181,125.43269019088945L124.60014204545455,125.43575138005012L124.84687500000001,119.11585155196983L125.15529119318181,117.25379417313744L125.40202414772727,120.84965454608306L125.525390625,119.41146284341693L125.64875710227273,119.47384739131601L126.0188565340909,128.77508518490902L126.38895596590909,122.81775110058469L126.51232244318182,121.34367123413074L126.75905539772727,124.49201001583148L127.00578835227273,121.11925471312844L127.25252130681818,124.18398070853866L127.3758877840909,122.25554412886524L127.86935369318182,120.58010614428125L128.1160866477273,122.79590286611065L128.23945312499998,118.57918790556556L128.36281960227274,123.6678623779178L128.48618607954546,125.20625635111507L128.85628551136364,127.85854219682025L129.1030184659091,128.06226908223408L129.596484375,125.44176932211235L129.84321732954544,120.56855685764671L129.9665838068182,120.91210093645044L130.08995028409092,122.22054988556152L130.21331676136364,124.71066237766622L130.33668323863637,124.19362958863948L130.83014914772727,124.99194630487978L131.07688210227272,122.0387106297324L131.20024857954544,120.65579305063581L131.57034801136365,117.8189964825881L131.69371448863637,114.66131863048142L131.81708096590907,113.5650176404724L131.94044744318182,115.43318907294777L132.06381392045455,115.04920489382403L132.310546875,114.39771417990941L132.43391335227273,120.32072599952102L132.55727982954545,122.67758460467489L132.6189630681818,123.0071842280708L132.86569602272726,124.18297549816003L133.23579545454547,127.50272163905673L133.48252840909092,124.74636406974031L133.60589488636364,117.79312340185662L133.8526278409091,124.27663195477797L133.97599431818182,123.34195129612462L134.09936079545454,124.17166260536948L134.34609375,129.20162623818146L134.46946022727275,127.03047811281931L134.71619318181817,125.5915871760532L134.83955965909092,122.53068269796879L135.45639204545455,122.01381609463071L135.703125,126.04305671573582L135.82649147727273,126.10394769445412L135.94985795454545,119.72662385937411L136.07322443181818,123.22091812661455L136.1965909090909,127.28002330221747L136.31995738636365,130.21406809806015L136.44332386363635,130.2605616210893L136.69005681818183,125.47413883444452L136.81342329545456,124.11514823618852L136.93678977272725,124.61982743758082L137.30688920454546,128.73268889182805L137.43025568181818,124.86889129270014L137.5536221590909,123.151703699016L137.67698863636366,120.65299247749468L137.92372159090908,125.37071414366925L138.66392045454543,121.94320689512753L138.7872869318182,122.72283224397353L138.9106534090909,119.1620340061412L139.15738636363636,121.7357615320314L139.65085227272726,120.42659135657317L140.02095170454544,123.02127198948122L140.32936789772728,125.75606921089013L140.8228338068182,127.16467533157471L141.19293323863639,127.30327093585927L141.31629971590908,128.1780431596576L141.4396661931818,124.0920162367643L141.6863991477273,125.9343290640885L141.80976562499998,120.63278768429942L141.93313210227274,119.07208442283482L142.17986505681816,123.61983582437412L142.3032315340909,124.41851140268744L142.42659801136364,119.440200837545L142.54996448863636,125.30507657326675L142.6733309659091,123.0895242451164L142.92006392045454,126.13377618668238L143.0434303977273,129.41448309707238L143.2901633522727,130.30253871190416L143.53689630681816,125.483836741662L143.66026278409092,130.92467068094408L143.90699573863637,134.08831792267384L144.15372869318182,134.75097602981162L144.27709517045454,126.33555555512956L144.4004616477273,127.6231439315629L144.523828125,126.82727987162262L144.89392755681817,129.48430349085365L145.0172940340909,132.50515476174954L145.14066051136365,129.75028573113488L145.51075994318182,129.77402758950552L145.63412642045455,124.65481965459803L146.62105823863638,129.30846913674986L146.99115767045456,131.7730054231127L147.11452414772725,127.80074315209404L147.36125710227273,130.46991255615L147.60799005681818,129.38692191252164L147.7313565340909,131.42575357147302L148.03977272727272,136.56398738733935L148.16313920454544,133.31712235556623L148.40987215909092,134.07266725515774L148.53323863636362,134.37527097972009L148.65660511363637,129.31543870582743L148.7799715909091,128.32564408556857L149.15007102272727,126.9936130862664L150.1370028409091,126.74663554966335L150.2603693181818,124.7775944050637L150.38373579545456,120.00953751289771L150.63046875,123.84337918264518L150.87720170454546,121.13268049768011L151.00056818181818,122.68962674625496L151.1239346590909,125.51863280594515L151.37066761363636,126.03941227055628L151.6174005681818,131.3625524054422L151.74076704545453,128.21185827610924L151.8641335227273,130.04216943824792L152.23423295454546,127.57174287990188L152.3575994318182,125.44075175601519L152.48096590909088,129.31193318023435L153.09779829545454,127.54404895240127L153.34453125,126.36212772922397L153.4678977272727,129.73132579121625L153.7146306818182,131.2638288803858L153.8379971590909,130.93541246801578L154.08473011363637,133.22776002763746L154.82492897727272,130.60836739787447L154.94829545454544,124.2855719883679L155.1950284090909,124.79372026347933L155.44176136363637,125.18150964674767L155.8735440340909,122.46032094071012L156.12027698863636,127.64853541362294L156.2436434659091,130.94145485672283L156.3670099431818,129.31015725717205L156.61374289772726,128.31445943357022L156.86047585227274,120.76433622340242L157.1072088068182,124.03368521286103L157.23057528409092,124.20972267746885L157.35394176136361,129.40800383383757L157.47730823863637,128.56953418445423L157.6006747159091,132.1543691331779L158.094140625,134.69483714674294L158.34087357954544,130.89887729175018L158.46424005681817,125.27939565961961L159.20443892045452,129.85814429410416L159.451171875,129.46287538447788L159.69790482954545,131.33435513788686L159.82127130681818,129.2203241517032L159.94463778409093,133.86539364607322L160.68483664772728,132.23614974311332L161.05493607954546,131.7352443706194L161.3016690340909,129.17610528795677L161.67176846590908,129.75305221668822L162.0418678977273,128.74386412001067L162.165234375,127.92788727876459L162.41196732954546,123.66904161293084L162.5353338068182,128.55974722726285L162.6587002840909,128.10470014900721L162.78206676136364,126.2950529629186L163.0287997159091,126.70298259085835L163.15216619318184,128.6218067957173L163.39889914772726,128.1089055652315L163.46058238636365,129.03261430268478L163.58394886363638,132.2370958266426L163.95404829545456,131.95714037075382L164.07741477272725,129.87250730852625L164.32414772727273,128.62440381520074L165.31107954545456,134.83220775431744L165.43444602272726,130.46147945368728L165.55781249999998,128.73196093012052L165.68117897727274,128.52137260765082L165.80454545454546,129.28695762812492L166.0512784090909,130.66132680915305L166.17464488636364,134.19831697907495L166.29801136363636,133.6529380588376L166.66811079545457,135.0784907970142L166.79147727272726,133.90629311318693L166.91484375,131.82375638974756L167.28494318181816,125.81338933853016L167.53167613636364,131.5641182439265L168.76534090909092,128.76020461806206L169.1354403409091,133.2719499237153L169.38217329545455,133.07630328878398L169.50553977272727,132.31256497994593L169.75227272727273,137.02374669798783L169.87563920454545,139.32173204513902L169.99900568181818,139.92413175491816L170.24573863636365,137.27524103600095L170.61583806818183,137.68395639957967L170.73920454545456,138.1086994048792L170.86257102272725,133.59569134941106L170.9859375,137.20782116272915L171.10930397727273,134.46037750216271L171.1709872159091,139.47021798062184L171.29435369318182,131.48828593680105L171.41772017045454,137.02839692551512L171.664453125,140.21574473731147L171.91118607954544,135.0914620535034L172.0345525568182,132.59367107604007L172.28128551136365,131.46353700941057L172.5280184659091,135.4599563691631L172.77475142045455,137.76311575409153L172.89811789772727,132.35760423478933L173.021484375,131.71653840322952L173.14485085227273,130.15388356417407L173.26821732954545,127.48614025146506L173.3915838068182,130.35508150676895L173.88504971590908,127.67158149471325L174.50188210227273,126.70344632096483L174.62524857954546,122.46193607417433L174.8719815340909,128.12705965970008L174.99534801136363,132.04502656767886L175.11871448863639,132.53292553931914L175.48881392045456,137.34288313909144L175.6121803977273,138.9405690360462L175.73554687499998,135.60527809161442L175.98227982954546,134.37671899355058L176.35237926136364,134.03112471398177L176.7224786931818,136.5092408751579L176.9692116477273,133.95309546644654L177.2159446022727,133.67878706911867L177.33931107954547,131.0024001795071L177.58604403409092,135.05102047954978L177.70941051136364,133.53567231345352L178.07950994318182,130.9231956876799L178.20287642045454,131.11561788707883L178.3262428977273,130.65810835149642L178.57297585227272,132.21141309736785L178.69634232954547,135.37309523827503L178.81970880681817,134.15665523824535L179.0047585227273,136.96103599700294L179.128125,131.06191309984868L179.2514914772727,130.9562549737809L179.37485795454546,129.8935370930507L179.4982244318182,134.23020969048366L179.6215909090909,133.76385108649492L179.86832386363636,132.17754282222728L180.23842329545454,134.89042802068022L180.36178977272726,137.3737810203708L180.6085227272727,134.196421104999L181.10198863636361,135.2354144844527L181.22535511363637,139.2053402117541L181.4720880681818,137.337579340167L181.96555397727272,138.16645394002404L182.2122869318182,140.46301058284382L182.45901988636362,136.02139350739535L182.7057528409091,131.6859738732143L182.8291193181818,138.79881741279263L182.95248579545455,140.0403601645613L183.07585227272727,141.30531800587457L183.32258522727273,143.81565513360937L183.6926846590909,137.44236941123378L183.81605113636363,138.0982268738094L184.0627840909091,134.08972517008888L184.1861505681818,134.6189306236561L184.30951704545456,132.14934634060077L184.55625,132.05419370378237L185.0497159090909,133.89448428396986L185.29644886363636,134.59810797792437L185.4198153409091,133.98378185606492L185.66654829545453,134.35866659966257L185.7899147727273,138.13645736962343L185.91328125,140.95078866176738L186.16001420454546,138.50136211924698L186.2833806818182,137.68657577507466L186.71516335227273,139.2758453454131L186.83852982954545,141.59550846525974L186.96189630681818,144.56006916967897L187.0852627840909,141.82929842610878L187.20862926136365,140.18569527958914L187.45536221590908,136.84056138287158L187.70209517045456,138.18434324195337L187.82546164772725,135.06572736684632L187.948828125,137.01221683193796L188.07219460227273,138.87153471176993L188.19556107954546,141.1807748685657L188.31892755681818,139.74538612893247L188.68902698863636,138.44316558781878L189.05912642045453,131.24757736400622L189.305859375,135.92643684115768L189.55259232954543,138.66273666656326L189.6759588068182,143.18035419542568L189.7993252840909,143.24248357546278L189.92269176136364,141.65258379249323L190.04605823863636,137.40056664906325L190.53952414772726,136.6493037042108L191.0329900568182,135.54021830750963L191.27972301136361,132.74025022845544L191.40308948863637,130.54658357087604L191.77318892045454,128.91228286662744L191.89655539772727,135.14458204594433L192.019921875,135.1088458337709L192.39002130681817,137.51695475164132L192.76012073863635,137.7442160696459L192.8834872159091,135.7374705198156L193.00685369318182,136.23669091603333L193.25358664772727,131.1312801774531L193.376953125,133.47936283840437L193.50031960227275,130.50873319015804L193.87041903409093,132.572142501937L194.11715198863635,137.4095130546211L194.2405184659091,134.70545840620287L194.30220170454547,138.71376193324053L194.42556818181816,137.77490394307273L194.54893465909092,137.65110578202257L194.67230113636364,137.56147103039874L194.9190340909091,134.38283330973434L195.04240056818182,137.12154539429517L195.4125,135.91750034650002L196.02933238636365,139.79499321439576L196.52279829545455,141.15140697574782L197.50973011363638,139.23901462977145L197.63309659090908,140.50814562413854L197.75646306818183,139.00617914422605L197.87982954545456,140.3040530858145L198.00319602272725,137.67597701398017L198.37329545454546,136.29099343832016L198.74339488636363,145.38053483100637L198.86676136363639,143.30052351567355L199.1134943181818,141.7475327522722L199.23686079545456,139.69233627100908L199.36022727272726,135.12212213279946L199.48359374999998,132.98324423979378L199.73032670454546,134.3676097692309L199.9770596590909,138.73108267675204L200.10042613636364,138.13950124457324L200.22379261363636,138.74824821686286L200.4705255681818,139.406781306311L200.59389204545457,141.54636073525484L200.71725852272726,145.69521415174074L200.96399147727274,141.91515060823082L201.21072443181816,143.0183917392417L201.95092329545454,139.97635580201995L202.13597301136363,144.18208997923912L202.62943892045453,140.73605116290432L202.7528053977273,144.51699474307574L202.876171875,142.02058211495827L203.36963778409088,142.77136697796567L203.98647017045454,144.98809245073843L204.1098366477273,149.17850351920532L204.6033025568182,142.9809191738545L205.0967684659091,143.6504200618329L205.46686789772727,142.46748645402045L205.83696732954544,145.72769840201474L205.9603338068182,141.4906595355838L206.0837002840909,141.5015889068325L206.4537997159091,141.59229237519418L206.57716619318182,140.7456079766335L206.947265625,142.39245174316846L207.07063210227273,144.0264446079964L207.19399857954545,140.63043490292043L207.3173650568182,141.2736115821591L207.4407315340909,143.13719071445706L208.30429687499998,143.8445458866062L208.42766335227273,141.2898038780706L208.55102982954546,143.69876292737672L208.6743963068182,146.76217380078603L208.92112926136363,147.26182308247002L209.04449573863639,147.62249285311628L209.16786221590908,146.92271061471598L209.2912286931818,143.7086851273026L209.41459517045456,142.77946034766637L209.5379616477273,144.22572543966902L209.66132812499998,145.63985614994363L209.72301136363635,145.21255318422138L209.8463778409091,145.5345001972595L210.21647727272727,140.18992841876135L210.46321022727275,140.16076089867778L211.08004261363635,140.5002210813989L211.2034090909091,141.89835482282257L211.32677556818183,144.1076821920313L211.57350852272728,141.33750508313102L212.43707386363636,141.20965939438176L212.68380681818184,139.08236899806684L213.1772727272727,141.80673157985802L213.30063920454546,144.12943452430994L213.4240056818182,146.03307206503365L213.9174715909091,142.49993333761543L214.16420454545454,146.57582623426407L214.28757102272726,147.26981406011754L214.5343039772727,143.5299107527182L214.65767045454544,144.00457781586655L214.90440340909092,141.92766345479998L215.02776988636361,143.33850172735663L215.3978693181818,143.01609157025388L215.76796875000002,142.8808360843894L215.89133522727272,149.06264576002806L216.01470170454544,146.97447895461977L216.6315340909091,148.63352065068653L216.7549005681818,147.04296139078764L217.803515625,146.15130793146184L217.92688210227274,143.68649958398947L218.29698153409092,142.146151407848L218.42034801136364,143.62888996474982L218.54371448863634,146.56114004683448L218.6670809659091,142.23109201280815L218.79044744318182,141.8899499011754L218.91381392045454,137.59538701013105L219.03718039772727,139.70612006922855L219.28391335227275,140.57586477581214L219.53064630681817,143.1903608810201L219.65401278409092,139.71332863132736L219.77737926136365,142.91583003176163L220.0241122159091,141.65544932597936L220.14747869318182,140.749239644073L220.39421164772727,137.52062407203397L220.64094460227273,137.8012959633343L220.76431107954545,136.03513960269345L221.0110440340909,135.6930239627179L221.13441051136365,136.6036442898052L221.62787642045456,137.97496640437245L221.75124289772725,141.5341226859221L221.99797585227273,140.84935933175782L222.12134232954546,138.75093392805928L222.24470880681818,142.76267323090758L222.3680752840909,140.18598003656828L222.61480823863636,139.89791205126375L222.73817471590908,140.86744617748013L222.86154119318184,144.92096780147187L222.98490767045453,141.2632984649843L223.47837357954543,145.69977637480875L223.7251065340909,138.18722338150025L223.84847301136364,140.88460840148716L223.97183948863636,145.23219484637784L224.2185724431818,147.94897965502355L224.46530539772726,145.9694839215226L224.71203835227274,143.414876900884L224.9587713068182,143.50081059371527L225.08213778409092,145.88338694761003L225.14382102272728,140.43619931601435L225.39055397727273,144.9732850543436L225.51392045454546,142.8845034053677L225.6372869318182,143.3113557411714L225.7606534090909,135.88673080952182L225.88401988636363,136.7549391038136L226.00738636363639,140.49106743429104L226.2541193181818,144.44889040809272L226.37748579545456,147.5732255000034L226.74758522727274,149.1977076331732L226.87095170454546,147.22297306838195L227.1176846590909,147.06270836273993L227.24105113636364,144.68511201150073L227.6111505681818,143.83790318376748L227.73451704545454,146.26330139690486L227.8578835227273,147.44844156732282L227.98125,145.18706141777596L228.1046164772727,143.3587065606878L228.35134943181816,145.37799151498098L228.8448153409091,144.19557276973626L229.09154829545454,144.25216537420715L229.2149147727273,140.73053167216526L229.33828125,140.67681267819952L229.70838068181817,143.54932873044885L229.8317471590909,143.57549304049894L230.07848011363637,144.071105155072L230.20184659090907,142.84624214604654L230.57194602272725,139.97900687140876L230.6953125,145.11934108649285L230.81867897727273,143.48215279870982L230.94204545454548,144.27372593620797L231.1887784090909,143.26602823353568L231.43551136363638,145.90843761095522L231.68224431818183,143.11094594414004L231.80561079545456,142.415159417508L232.05234375,144.66730090479697L232.17571022727273,142.27541396557737L232.29907670454546,143.89673290872244L232.42244318181818,144.8073323994237L232.66917613636363,147.24128307679564L232.97759232954544,144.11613549723967L233.1009588068182,141.78946026995067L233.22432528409092,143.31712247947178L233.34769176136362,144.21208381622438L233.47105823863637,137.98522384423222L233.84115767045455,139.1896654037596L233.96452414772727,135.46327939960125L234.21125710227273,131.45847715044368L234.33462357954545,140.77682988622027L234.45799005681818,143.26263326278956L234.5813565340909,143.55150938185722L234.82808948863635,144.76584012897413L234.9514559659091,141.50795792675228L235.0748224431818,136.74182196648022L235.56828835227273,143.56015806316677L235.9383877840909,144.9123191027751L236.06175426136363,144.04485907181194L236.18512073863636,145.66797561529486L236.55522017045453,152.91939590832456L236.6785866477273,152.39202815811112L236.801953125,146.8119410474596L236.9253196022727,148.8750058975237L237.04868607954546,149.18364996509695L237.29541903409088,150.05587511202367L237.41878551136364,151.35020926298603L237.54215198863636,145.9833283225002L237.91225142045454,145.30874739257186L238.0356178977273,145.6264924745292L238.2823508522727,141.82686959406726L238.40571732954547,147.6995179570153L238.5290838068182,147.45266823242594L238.89918323863637,148.70906928664175L239.14591619318182,151.01034022817262L239.26928267045454,149.2597273033347L239.39264914772727,145.84161655083773L239.516015625,145.68202436761288L239.63938210227272,147.488076462034L240.0094815340909,148.3170443115826L240.3795809659091,149.4129986338266L240.50294744318182,143.03111076768178L240.81136363636364,145.71231734697895L240.93473011363636,145.95344275417483L241.42819602272726,146.34585205946897L241.79829545454544,147.0886238234593L241.9216619318182,144.5251090198854L242.16839488636361,146.9661804637279L242.4151278409091,150.62753204625267L242.66186079545454,149.28194996190916L242.78522727272727,148.2316231230984L242.90859375,147.4732804887516L243.03196022727275,150.20338926576403L243.52542613636362,148.81768927022077L243.64879261363635,149.10532554940622L243.7721590909091,154.6264085828978L244.01889204545452,151.09612373911958L244.14225852272727,151.2756471631892L244.265625,143.14301725087674L244.75909090909093,141.4380470234825L245.00582386363635,141.1872563803523L245.25255681818183,145.29532228814162L245.49928977272728,145.22114606774625L245.62265625,144.98577196015168L245.86938920454546,144.83055631106237L245.99275568181818,143.35399555403265L246.36285511363636,136.90910709982268L246.60958806818184,141.98886082530487L246.73295454545453,145.87672735089154L247.1030539772727,147.91249232407495L247.4731534090909,151.50692775055106L247.96661931818184,147.560504470866L248.21335227272726,148.67603147639397L248.27503551136365,148.67926925167149L248.64513494318183,146.98994799108814L249.13860085227273,147.92535638843637L249.26196732954546,143.93101344641468L249.38533380681818,141.78647423966146L249.5087002840909,145.79610302105905L249.87879971590908,148.22376801418545L250.0021661931818,143.35379450034594L250.12553267045456,146.17058091142553L250.37226562499998,147.92475252205895L250.49563210227274,145.83649954541636L250.61899857954546,145.99379556402783L250.8657315340909,145.98461721088867L250.98909801136364,147.08384406028955L251.3591974431818,144.43755209803223L251.48256392045457,148.68260370805086L251.729296875,149.10647242123355L251.97602982954547,151.0116474301728L252.09939630681816,152.1552691554196L252.22276278409092,155.1467415776483L252.71622869318182,154.4278225463763L253.086328125,149.08124610840034L253.20969460227275,146.10129295720344L253.33306107954544,148.90523842948082L253.45642755681817,148.45249265656378L253.82652698863635,152.46665239724635L254.19662642045455,149.19852984977507L254.31999289772727,146.75403300897182L254.443359375,146.58586522047014L254.56672585227273,150.56010903014564L254.69009232954545,149.94222131092147L254.9368252840909,145.1313147221229L255.30692471590908,145.90843398454615L255.67702414772725,146.9221636337508L255.92375710227273,145.19666919338337" style="fill: none;" fill="none"></path></g></g></g></g><g opacity="0.20000000298023224"><g><g><g><path stroke="rgb(255, 112, 67)" stroke-width="2px" d="M29.607954545454543,-9.762229764601216L29.8546875,7.735760376090184L30.101420454545455,11.071650945814326L30.22478693181818,3.1507326115388423L30.471519886363637,6.378310744185001L30.718252840909088,-5.118839151691645L30.841619318181817,17.07189497537911L31.211718750000003,14.72621856664773L31.335085227272724,12.897593271918595L31.458451704545453,23.688029358163476L31.581818181818182,22.83941631903872L31.70518465909091,15.451911895070225L32.07528409090909,26.70328861568123L32.19865056818182,11.272111762082204L32.383700284090914,9.568824162124656L32.630433238636364,6.382815481629223L32.75379971590909,26.78887862712145L32.87716619318182,13.747630603029393L33.00053267045455,17.505144723691046L33.37063210227273,5.019171835738234L33.493998579545455,16.2681968184188L33.61736505681819,22.204877677722834L33.740731534090905,32.79637660889421L33.98746448863636,21.362226791097783L34.357563920454545,28.07355687546078L34.974396306818186,42.69232420483604L35.097762784090904,32.51483051863033L35.221129261363636,20.693008296075277L35.34449573863636,37.789646204328164L35.467862215909086,48.36173501680605L35.59122869318182,26.994771626777947L36.20806107954546,37.20886630471796L37.194992897727275,32.99220019544009L37.56509232954545,33.05069553607609L37.68845880681818,47.785559223848395L38.55202414772727,55.673652596306056L38.922123579545456,38.02369381301105L39.16885653409091,50.690618029329926L39.29222301136364,34.41384233592544L39.415589488636364,46.28763465443626L39.90905539772727,47.23462320980616L40.032421875,34.92132088285871L40.09410511363637,42.028537893202156L40.46420454545454,39.40217659401242L40.58757102272727,57.370944920694456L40.95767045454546,44.7578125691507L41.451136363636365,49.804940275498666L41.697869318181816,53.29803293279838L41.94460227272727,54.051814624108374L42.06796875,58.98516458692029L42.19133522727273,64.11967095045839L42.314701704545456,61.38933633628767L42.561434659090914,59.98654122231528L42.808167613636364,57.76878610777203L43.054900568181814,61.31984413659666L43.425000000000004,53.12963524775114L43.54836647727273,52.008386224042624L43.671732954545455,65.70222496229691L43.918465909090905,46.97179165377747L44.04183238636363,54.56114806293044L44.16519886363636,54.46065267024096L44.535298295454545,56.13018786243629L44.78203125,66.41937253880316L44.90539772727273,60.63952941331081L45.15213068181818,67.3065077076899L45.275497159090904,64.74162282538602L45.64559659090909,68.61907558050008L46.1390625,72.04313976108098L46.26242897727273,64.13752428488806L46.38579545454545,61.59079084463883L46.50916193181818,65.48795182607138L46.755894886363635,56.26109023287427L46.87926136363637,59.2734677833505L47.12599431818182,46.1607732984703L47.372727272727275,64.29452763404697L47.49609375,67.61021313141102L47.619460227272725,44.85840733104851L47.74282670454545,77.01819166832139L47.92787642045455,68.7209952651756L48.05124289772727,82.59886577725412L48.91480823863637,77.27350428758656L49.40827414772727,59.519804050796665L49.901740056818184,71.7461914435262L50.02510653409091,60.229532059747726L50.14847301136364,82.26071236131249L50.64193892045454,69.58004207117484L50.765305397727275,75.15796696534382L51.012038352272725,82.84821624401958L51.382137784090915,62.5775270833401L51.50550426136363,71.6907103022095L51.875603693181816,70.97266840282829L51.99897017045455,42.40077494760044L52.245703125,69.13937275530772L52.36906960227273,77.47270642721561L52.492436079545456,73.30241261515768L52.73916903409091,67.35930588038174L52.86253551136363,74.39216159982608L52.985901988636364,75.64110005623662L53.10926846590909,74.28550531622024L53.23263494318182,74.52455450838899L53.35600142045455,70.40742322278676L53.72610085227273,30.028612926253118L54.096200284090905,58.55850632942747L54.58966619318182,75.04491792933551L54.713032670454545,63.100838457467034L54.959765625,82.0618745754473L55.20649857954545,73.13676414487419L55.32986505681818,79.08543555531652L55.885014204545456,79.93444607127459L56.25511363636364,83.11681121413132L56.378480113636364,73.54348231456244L56.501846590909096,83.44267597130967L56.62521306818182,75.95884966140149L56.87194602272727,88.3915937767597L57.36541193181818,87.32334166415968L57.61214488636364,71.75142488849816L57.858877840909095,68.44941921881401L58.105610795454545,86.68870365363547L58.722443181818186,71.76686023885851L58.969176136363636,84.44242957630196L59.462642045454544,69.95522707875354L60.079474431818184,87.81952524441296L60.326207386363635,81.2192568118917L60.44957386363636,86.2238544970751L60.81967329545454,55.66990968945902L61.06640625,69.06318969558926L61.18977272727273,83.15344532893506L61.31313920454546,86.43726643349511L61.55987215909091,74.80381510686131L61.68323863636363,75.89598207559904L61.806605113636365,86.86346096801573L62.30007102272727,87.86129343498034L62.423437500000006,81.63829676341267L62.67017045454545,78.72571902116762L63.04026988636364,90.97214587091004L63.47205255681818,97.87012445158327L63.59541903409091,96.55599979450928L63.718785511363635,70.49652427958792L63.84215198863637,93.21537262585481L64.08888494318182,78.38925488176757L64.458984375,86.4555172447581L64.58235085227273,97.02084895106965L64.70571732954545,74.36317891406362L65.07581676136364,87.4941242102068L65.19918323863637,83.05891208874529L65.44591619318182,102.9881024034694L66.18611505681818,84.21772267320195L66.43284801136363,75.29711698007306L66.80294744318182,79.4219990639249L66.92631392045455,74.95502191886773L67.173046875,90.58834886527622L67.29641335227272,94.84837307245472L67.91324573863636,88.13800355710556L68.03661221590909,69.07491526217201L68.28334517045454,93.17446563509294L68.530078125,68.2532644015737L68.65344460227273,99.09928843553645L68.77681107954545,97.98920188623016L69.14691051136363,88.61702938738746L69.27027698863637,87.79186748142821L69.3936434659091,84.30559817643372L69.64037642045454,95.7668757881038L69.76374289772727,88.72828977764586L70.01047585227272,84.39811090938748L70.13384232954546,72.7726422424894L70.38057528409091,89.80346461175942L70.62730823863637,92.19723571732176L70.87404119318181,99.35314363974614L70.93572443181817,81.19564006337897L71.05909090909091,85.23218292102685L71.30582386363638,99.45108855608852L71.42919034090909,90.70282219327056L71.79928977272726,77.29407371371055L71.92265625,100.86762974387968L72.04602272727273,81.02333385613748L72.16938920454545,95.51136443042198L72.41612215909092,89.53367721114775L72.53948863636364,90.61398612102495L72.66285511363635,88.90821429085919L72.7862215909091,86.40884683991318L73.89651988636363,96.11887464707253L74.01988636363636,96.3794538343791L74.26661931818181,90.04228194244207L74.63671875,79.36718038399705L75.50028409090909,102.14826697774699L75.62365056818182,82.75335177313538L76.11711647727273,97.09491213434377L76.24048295454544,101.93081402685495L76.36384943181818,104.5124591822969L76.61058238636365,98.08390074176715L76.8573153409091,106.90550158033149L77.35078125,104.65147670474836L78.46107954545454,97.64558316383047L78.58444602272728,97.22803375043442L78.64612926136364,81.42442110402045L78.76949573863637,92.10455736902078L79.01622869318182,87.52191446546932L79.13959517045454,92.75545880664141L79.50969460227273,86.84103665000295L79.8797940340909,98.0417681974359L80.61999289772727,103.16686760925224L80.743359375,95.52431555057412L80.86672585227274,90.19011020136533L80.99009232954545,93.53474526142237L81.11345880681819,95.80079381121324L81.36019176136362,95.48377291357612L81.48355823863636,105.00370742520319L81.60692471590909,100.17247588548345L81.85365767045454,101.45529924193399L81.97702414772728,105.27021564194003L82.100390625,104.29696049250198L82.34712357954545,105.72257740132046L82.5938565340909,99.12353452236859L82.71722301136363,102.6824758417206L83.21068892045454,111.06267865689007L84.07425426136363,107.98461805970875L84.44435369318182,103.80488417285962L84.56772017045455,111.04214235383553L84.814453125,111.1774500925094L85.06118607954545,110.55980421660935L85.43128551136363,82.85653013444973L86.29485085227272,98.86013987415937L86.72663352272727,109.19798233953772L87.09673295454546,109.9393760028761L87.22009943181818,98.15723521751353L87.34346590909091,91.08993150584867L87.59019886363637,98.692106542876L87.83693181818181,93.02183453110048L87.96029829545455,102.54319333471359L88.20703125,97.13906518591104L88.82386363636364,107.43447699933314L88.94723011363635,98.06727296090686L89.68742897727273,98.53669310105035L89.93416193181818,100.27754226175604L90.05752840909092,104.98734462889844L90.18089488636363,98.07025403715672L90.30426136363636,99.08256128546783L90.4276278409091,109.08658945700155L90.55099431818181,103.41535687621219L90.67436079545455,108.64323717250956L90.79772727272727,111.1187228903873L90.92109375000001,106.43531960959082L91.04446022727272,114.82065650052394L91.29119318181819,103.500019441708L91.66129261363636,102.50735417357647L91.78465909090909,104.05122044030578L91.90802556818181,110.56182472384536L92.15475852272728,90.77695162268357L92.64822443181818,107.83460367820227L92.89495738636364,94.03371117950884L93.1416903409091,105.50260709715077L93.26505681818182,120.63408641843128L93.63515625,101.80663563951386L93.75852272727273,102.06380315066782L93.88188920454544,97.74783407920042L94.06693892045455,111.09255566552748L94.313671875,102.74968254962006L94.56040482954545,109.3456781061832L94.80713778409091,100.03445205511527L94.93050426136364,105.47302819613834L95.30060369318181,105.89998456125615L95.54733664772728,120.00229699187915L95.67070312499999,114.98660307843241L95.79406960227273,99.98105766717346L95.91743607954545,114.34908336086667L96.04080255681819,99.38613421691117L96.1641690340909,117.61438866960819L96.41090198863637,101.40104365418667L96.53426846590908,107.88389080553317L97.15110085227273,109.49496378016194L97.27446732954546,108.34006171789953L97.52120028409091,101.23430212261157L97.64456676136365,100.61910735385028L97.76793323863636,97.2461189463502L97.89129971590908,126.72687630401927L98.13803267045454,107.79472350259313L98.384765625,111.13379388698378L98.63149857954545,118.05383243190593L98.87823153409092,101.74850465264173L99.12496448863637,108.10849833942486L99.37169744318182,125.72970629844352L99.49506392045454,123.26879473112061L99.61843039772728,103.30740879289807L99.98852982954546,112.067566337646L100.48199573863637,106.48573292128278L100.60536221590908,101.2877958797617L100.85209517045455,102.82907854707447L100.97546164772727,116.9911449949723L101.22219460227272,114.7077399567934L101.71566051136364,102.85358961846215L101.77734375,100.70920210273472L102.02407670454545,109.80059034191073L102.27080965909092,109.51646065223032L103.134375,112.40787275310142L103.25774147727272,109.91234757821077L103.50447443181818,106.87880438636058L103.6278409090909,110.00678144919222L103.75120738636363,116.80790817481468L103.87457386363637,111.94040687405506L103.9979403409091,97.01853033620866L104.12130681818181,104.04237658076455L104.36803977272727,117.52621505875143L104.49140625,110.00416472670624L104.98487215909091,110.8884513116209L105.10823863636364,97.57744900998661L105.35497159090909,115.55559116532098L105.60170454545455,114.71390084770977L105.97180397727273,102.89764330082109L106.21853693181818,107.91658327507322L106.34190340909092,115.15731937834065L106.46526988636364,107.37876399653034L106.83536931818182,111.32789507391864L106.95873579545454,122.7608193381457L107.08210227272727,104.59086148766802L107.20546875000001,101.29508295503912L107.32883522727272,126.65178630559242L107.57556818181818,114.54205836344047L107.6989346590909,113.66946422203911L107.82230113636363,107.90515581611545L108.0690340909091,109.76461868849584L108.19240056818181,90.81298952223734L108.31576704545455,114.75722582254096L108.43913352272727,109.90453053382227L108.5625,123.20228360767945L108.68586647727273,134.10199270001615L108.93259943181818,113.53283156058752L109.0559659090909,125.7820738712326L109.42606534090909,120.31368696771099L109.85784801136364,121.56775949988517L110.22794744318182,108.42018642288168L110.35131392045456,118.76849577820397L110.47468039772727,116.90797296760141L110.598046875,110.85681878030302L110.72141335227273,114.8242669150932L110.84477982954544,118.02233239286582L110.96814630681818,110.47143186733594L111.09151278409091,115.97463111684195L111.33824573863636,111.10782540054062L111.4616122159091,114.10725183086473L111.58497869318182,123.89458888210359L112.07844460227273,116.42914587573617L112.57191051136364,117.18855848885144L112.69527698863637,117.88566660834479L112.94200994318182,118.21113388868983L113.06537642045454,125.4276239051251L113.18874289772728,107.17412967351267L113.31210937499999,111.856174908462L113.43547585227273,119.54834532516546L113.55884232954546,115.31680695770777L113.92894176136365,114.73586144275035L114.05230823863636,119.10903405514549L114.17567471590908,119.08558292197998L114.79250710227274,122.75790450803473L115.03924005681819,126.41674500482625L115.16260653409091,118.64895462058487L115.28597301136362,110.1098273182288L115.40933948863636,121.62787787092387L115.65607244318183,102.87379469082227L116.026171875,124.1598384222016L116.14953835227273,116.54491100343878L116.5196377840909,115.64561966806653L116.64300426136363,99.91626894334333L116.76637073863637,118.98432569869331L117.01310369318182,108.3353913651081L117.1981534090909,107.6156601891853L117.56825284090908,112.47289333841765L117.69161931818182,120.29096454207323L117.93835227272727,111.37148503330538L118.30845170454546,104.39228868635838L118.43181818181817,126.14679198886736L118.55518465909091,108.21273663896137L118.80191761363636,124.19836055196359L118.92528409090909,127.73895169084429L119.04865056818183,114.96262197615582L119.17201704545454,127.52226057054943L119.29538352272728,124.1223099845229L119.41875,103.89156724559145L119.54211647727273,122.71126722625925L119.66548295454545,118.63901769975203L120.03558238636363,105.84347660478672L120.15894886363637,126.05504108651078L120.65241477272727,126.24318012094594L120.77578125000001,124.40471727459229L121.02251420454546,108.2430111244321L121.26924715909091,117.47083328664306L121.51598011363637,122.99490006989802L121.63934659090908,115.54217632219664L121.76271306818181,119.1775988088921L121.88607954545455,116.86696660763121L122.00944602272726,116.34315838746264L122.1328125,113.851972334669L122.37954545454546,121.78772980405486L122.62627840909092,118.60400661535098L122.87301136363635,108.87284628988711L123.24311079545454,115.90043544129006L123.36647727272727,121.63668860739566L123.48984375,117.46010141214359L123.61321022727273,114.30926943139642L123.73657670454546,125.30702280928384L124.23004261363636,116.14630798576403L124.47677556818181,135.98513856704815L124.60014204545455,125.44034316379114L124.84687500000001,109.63600180984942L125.15529119318181,114.46070810488894L125.40202414772727,126.24344510550148L125.525390625,117.25417528941765L125.64875710227273,119.56742421316451L126.0188565340909,142.72694187529854L126.38895596590909,113.88174997409808L126.51232244318182,119.13255143444988L126.75905539772727,129.21451818838253L127.00578835227273,116.06012175907384L127.25252130681818,128.78106970165393L127.3758877840909,119.36288925935517L127.86935369318182,118.06694916740528L128.1160866477273,126.11959794885482L128.23945312499998,112.2541154647479L128.36281960227274,131.30087408644616L128.48618607954546,127.51384731091096L128.85628551136364,131.83697096537801L129.1030184659091,128.3678594103549L129.596484375,121.51101968192964L129.84321732954544,113.25873816094828L129.9665838068182,121.42741705465599L130.08995028409092,124.18322330922823L130.21331676136364,128.44583111582327L130.33668323863637,123.41808040509935L130.83014914772727,126.18942137924026L131.07688210227272,117.60885711701124L131.20024857954544,118.58141668199099L131.57034801136365,113.56380163051655L131.69371448863637,109.92480185232127L131.81708096590907,111.92056615545881L131.94044744318182,118.23544622166085L132.06381392045455,114.47322862513832L132.310546875,113.42047810903752L132.43391335227273,129.20524372893854L132.55727982954545,126.21287251240577L132.6189630681818,123.50158366316467L132.86569602272726,125.94666240329391L133.23579545454547,132.4823408504017L133.48252840909092,120.61182771576571L133.60589488636364,107.3632624000311L133.8526278409091,134.00189478416L133.97599431818182,121.93993030814457L134.09936079545454,125.41622956923678L134.34609375,136.74657168739944L134.46946022727275,123.77375592477622L134.71619318181817,123.43325077090415L134.83955965909092,117.93932598084214L135.45639204545455,121.23851618962365L135.703125,132.08691764739345L135.82649147727273,126.19528416253164L135.94985795454545,110.16063810675406L136.07322443181818,128.46235952747523L136.1965909090909,133.36868106562181L136.31995738636365,134.61513529182415L136.44332386363635,130.33030190563298L136.69005681818183,118.29450465447738L136.81342329545456,122.07666233880448L136.93678977272725,125.37684623966928L137.30688920454546,134.90198107319887L137.43025568181818,119.07319489400837L137.5536221590909,120.57592230848971L137.67698863636366,116.90492564521267L137.92372159090908,132.4472966429312L138.66392045454543,116.80194602231498L138.7872869318182,123.8922702672426L138.9106534090909,113.82083664939275L139.15738636363636,125.59635282086677L139.65085227272726,118.46283609338573L140.02095170454544,126.9132929388434L140.32936789772728,129.8582650430035L140.8228338068182,129.27758451260163L141.19293323863639,127.5111643422861L141.31629971590908,129.49020149535502L141.4396661931818,117.96297585242431L141.6863991477273,128.6977983050747L141.80976562499998,112.68047561461573L141.93313210227274,116.73102953063793L142.17986505681816,130.44146292668304L142.3032315340909,125.61652477015744L142.42659801136364,111.97273498983124L142.54996448863636,134.10239017684947L142.6733309659091,119.76619575289081L142.92006392045454,130.70015409903138L143.0434303977273,134.3355434626574L143.2901633522727,131.6346221341519L143.53689630681816,118.25578378629874L143.66026278409092,139.08592158986724L143.90699573863637,138.83378878526858L144.15372869318182,135.74496319051835L144.27709517045454,113.71242484310643L144.4004616477273,129.55452649621296L144.523828125,125.63348378171216L144.89392755681817,133.46983891970015L145.0172940340909,137.03643166809346L145.14066051136365,125.61798218521292L145.51075994318182,129.80964037706147L145.63412642045455,116.97600775223694L146.62105823863638,136.2889433599776L146.99115767045456,135.46980985265694L147.11452414772725,121.84234974556605L147.36125710227273,134.4736666622339L147.60799005681818,127.76243594707924L147.7313565340909,134.48400105990007L148.03977272727272,144.27133811113893L148.16313920454544,128.44682480790655L148.40987215909092,135.20598460454497L148.53323863636362,134.82917656656358L148.65660511363637,121.72569029498848L148.7799715909091,126.8409521551803L149.15007102272727,124.9955665873131L150.1370028409091,126.37616924475881L150.2603693181818,121.82403268816418L150.38373579545456,112.85745217464866L150.63046875,129.59414168726656L150.87720170454546,117.06663247023246L151.00056818181818,125.0250461191172L151.1239346590909,129.76214189548048L151.37066761363636,126.82058146747298L151.6174005681818,139.347262607771L151.74076704545453,123.48581708210989L151.8641335227273,132.78763618145607L152.23423295454546,123.86610304238278L152.3575994318182,122.2442650701851L152.48096590909088,135.11870531656317L153.09779829545454,124.89222261065154L153.34453125,124.58924589445817L153.4678977272727,134.78512288420464L153.7146306818182,133.56258351414002L153.8379971590909,130.44278784946076L154.08473011363637,136.66628136707007L154.82492897727272,126.67927845322995L154.94829545454544,114.80137887410822L155.1950284090909,125.55594267614654L155.44176136363637,125.7631937216502L155.8735440340909,118.37853788165378L156.12027698863636,135.4308571229922L156.2436434659091,135.88083402137275L156.3670099431818,126.86321085784587L156.61374289772726,126.8209126981674L156.86047585227274,109.4391514081508L157.1072088068182,128.93770869704898L157.23057528409092,124.47377887438054L157.35394176136361,137.20542556839067L157.47730823863637,127.31182971037927L157.6006747159091,137.53162155626345L158.094140625,138.50553916709035L158.34087357954544,125.2049375092611L158.46424005681817,116.85017321142371L159.20443892045452,136.726267245831L159.451171875,128.86997202003843L159.69790482954545,134.1415747680003L159.82127130681818,126.04927767242773L159.94463778409093,140.83299788762818L160.68483664772728,129.79228388867344L161.05493607954546,130.98388631187848L161.3016690340909,125.33739666396289L161.67176846590908,130.6184726097854L162.0418678977273,127.23008197499442L162.165234375,126.7039220168954L162.41196732954546,117.28077311418022L162.5353338068182,135.8958056487609L162.6587002840909,127.42212953162382L162.78206676136364,123.58058218378576L163.0287997159091,127.31487703276801L163.15216619318184,131.50004310300577L163.39889914772726,127.3395537195029L163.46058238636365,130.41817740886475L163.58394886363638,137.0438181125792L163.95404829545456,131.5372071869206L164.07741477272725,126.74555771518502L164.32414772727273,126.75224857521246L165.31107954545456,144.14391366299245L165.43444602272726,123.90538700274195L165.55781249999998,126.13768314477059L165.68117897727274,128.20549012394625L165.80454545454546,130.43533515883612L166.0512784090909,132.72288058069537L166.17464488636364,139.5038022339577L166.29801136363636,132.8348696784815L166.66811079545457,137.216819904279L166.79147727272726,132.147996587446L166.91484375,128.6999513045885L167.28494318181816,116.79783876170407L167.53167613636364,140.19021160202104L168.76534090909092,124.55433417926545L169.1354403409091,140.03956788219514L169.38217329545455,132.78283333638686L169.50553977272727,131.16695751668888L169.75227272727273,144.09051927505064L169.87563920454545,142.76871006586592L169.99900568181818,140.82773131958677L170.24573863636365,133.3019049576251L170.61583806818183,138.29702944494787L170.73920454545456,138.74581391282848L170.86257102272725,126.82617926620881L170.9859375,142.6260158827063L171.10930397727273,130.3392120113131L171.1709872159091,146.98497869831047L171.29435369318182,119.51538787106986L171.41772017045454,145.33856340858623L171.664453125,144.99676645500588L171.91118607954544,127.40503802779133L172.0345525568182,128.84698460984512L172.28128551136365,129.7683359094663L172.5280184659091,141.45458540879193L172.77475142045455,141.21785483148417L172.89811789772727,124.24933695583607L173.021484375,130.75493965588979L173.14485085227273,127.80990130559078L173.26821732954545,123.48452528240162L173.3915838068182,134.65849338972478L173.88504971590908,123.64633147662974L174.50188210227273,125.25124356034215L174.62524857954546,116.09967070398855L174.8719815340909,136.6247450379888L174.99534801136363,137.92197692964695L175.11871448863639,133.26477399677972L175.48881392045456,144.55781953874978L175.6121803977273,141.3370978814783L175.73554687499998,130.60234167496677L175.98227982954546,132.5338803464547L176.35237926136364,133.5127332946286L176.7224786931818,140.22641511692203L176.9692116477273,130.11887735337953L177.2159446022727,133.26732447312682L177.33931107954547,126.98781984508972L177.58604403409092,141.1239509296138L177.70941051136364,131.26265006430916L178.07950994318182,127.00448074901945L178.20287642045454,131.40425118617716L178.3262428977273,129.9718440481229L178.57297585227272,134.541370216175L178.69634232954547,140.11561844963583L178.81970880681817,132.3319952382008L179.0047585227273,141.16760713513943L179.128125,122.21322875411718L179.2514914772727,130.79776778467934L179.37485795454546,128.2994602719555L179.4982244318182,140.735218586633L179.6215909090909,133.06431318051185L179.86832386363636,129.79808042582593L180.23842329545454,138.95975581835958L180.36178977272726,141.09881051990672L180.6085227272727,129.4303812319413L181.10198863636361,136.7939045536332L181.22535511363637,145.16022880270614L181.4720880681818,134.5359380327864L181.96555397727272,139.40976583980958L182.2122869318182,143.90784554707355L182.45901988636362,129.35896789422262L182.7057528409091,125.18284442194275L182.8291193181818,149.46808272216006L182.95248579545455,141.90267429221424L183.07585227272727,143.20275476784448L183.32258522727273,147.58116082521158L183.6926846590909,127.88244082767054L183.81605113636363,139.082013067673L184.0627840909091,128.07697261450815L184.1861505681818,135.41273880400698L184.30951704545456,128.44496991601775L184.55625,131.9114647485549L185.0497159090909,136.6549201542512L185.29644886363636,135.6535435188562L185.4198153409091,133.06229267327583L185.66654829545453,134.92099371505904L185.7899147727273,143.80314352456483L185.91328125,145.17228559998333L186.16001420454546,134.82722230546645L186.2833806818182,136.46439625881615L186.71516335227273,141.65974970092068L186.83852982954545,145.0750031450298L186.96189630681818,149.00691022630784L187.0852627840909,137.7331423107535L187.20862926136365,137.72029055980968L187.45536221590908,131.82286053779538L187.70209517045456,140.2000160305761L187.82546164772725,130.3878035541857L187.948828125,139.93195102957546L188.07219460227273,141.66051153151787L188.19556107954546,144.64463510375938L188.31892755681818,137.59230301948267L188.68902698863636,136.48983477614823L189.05912642045453,120.45419502828739L189.305859375,142.944726056885L189.55259232954543,142.76718640467155L189.6759588068182,149.95678048871926L189.7993252840909,143.33567764551847L189.92269176136364,139.26773411803882L190.04605823863636,131.02254093391824L190.53952414772726,135.52240928693212L191.0329900568182,133.87659021245784L191.27972301136361,128.54029810987416L191.40308948863637,127.25608358450702L191.77318892045454,126.46083181025463L191.89655539772727,144.49303081491965L192.019921875,135.05524151551074L192.39002130681817,141.1291181284469L192.76012073863635,138.08510804665278L192.8834872159091,132.72735219507015L193.00685369318182,136.98552151035986L193.25358664772727,123.47316406958274L193.376953125,137.0014868298313L193.50031960227275,126.05278871778867L193.87041903409093,135.66725646960552L194.11715198863635,144.66556888364724L194.2405184659091,130.64937643357555L194.30220170454547,144.72621722379702L194.42556818181816,136.36661695782098L194.54893465909092,137.46540854044727L194.67230113636364,137.42701890296306L194.9190340909091,129.61487672873776L195.04240056818182,141.22961352113637L195.4125,134.11143277480735L196.02933238636365,145.61123251623943L196.52279829545455,143.18602761777586L197.50973011363638,136.3704261108069L197.63309659090908,142.4118421156891L197.75646306818183,136.75322942435744L197.87982954545456,142.25086399819705L198.00319602272725,133.73386290622878L198.37329545454546,134.2135180748301L198.74339488636363,159.0148469200358L198.86676136363639,140.1805065426743L199.1134943181818,139.41804660717028L199.23686079545456,136.60954154911454L199.36022727272726,128.2668009254849L199.48359374999998,129.7749274002854L199.73032670454546,136.4441580633866L199.9770596590909,145.27629203803374L200.10042613636364,137.25212909630503L200.22379261363636,139.66136867529715L200.4705255681818,140.39458094048317L200.59389204545457,144.75572987867056L200.71725852272726,151.9184942764696L200.96399147727274,136.24505529296587L201.21072443181816,144.67325343575797L201.95092329545454,135.4133018961875L202.13597301136363,150.4906912450679L202.62943892045453,135.56699293840214L202.7528053977273,150.18841011333282L202.876171875,138.27596317278224L203.36963778409088,143.89754427247684L203.98647017045454,148.31318065989765L204.1098366477273,155.4641201219056L204.6033025568182,133.68454265582844L205.0967684659091,144.65467139380056L205.46686789772727,140.69308604230176L205.83696732954544,150.61801632400605L205.9603338068182,135.13510123593736L206.0837002840909,141.51798296370546L206.4537997159091,141.72834757773674L206.57716619318182,139.47558137879244L206.947265625,144.86271739297084L207.07063210227273,146.4774339052383L207.19399857954545,135.53642034530642L207.3173650568182,142.2383766010171L207.4407315340909,145.9325594129041L208.30429687499998,144.90557864482983L208.42766335227273,137.4576908652671L208.55102982954546,147.31220150133598L208.6743963068182,151.3572901109001L208.92112926136363,148.0112970049959L209.04449573863639,148.1634975090856L209.16786221590908,145.87303725711539L209.2912286931818,138.8876468961826L209.41459517045456,141.385623178212L209.5379616477273,146.39512307767293L209.66132812499998,147.76105221535548L209.72301136363635,144.571598735638L209.8463778409091,146.0174207168166L210.21647727272727,132.1730707510142L210.46321022727275,140.11700961855243L211.08004261363635,141.00941135548058L211.2034090909091,143.9955554349581L211.32677556818183,147.42167324584446L211.57350852272728,137.1822394197807L212.43707386363636,141.01789086125794L212.68380681818184,135.89143340359445L213.1772727272727,145.89327545254494L213.30063920454546,147.61348894098776L213.4240056818182,148.88852837611924L213.9174715909091,137.20022524648815L214.16420454545454,152.68966557923707L214.28757102272726,148.31079579889777L214.5343039772727,137.92005579161926L214.65767045454544,144.71657841058916L214.90440340909092,138.8122919132002L215.02776988636361,145.4547591361916L215.3978693181818,142.5324763345998L215.76796875000002,142.67795285559262L215.89133522727272,158.33536027348603L216.01470170454544,143.84222874650735L216.6315340909091,151.1220831947867L216.7549005681818,144.65712250093932L217.803515625,144.81382774247325L217.92688210227274,139.98928706278096L218.29698153409092,139.83562914363577L218.42034801136364,145.8529978001025L218.54371448863634,150.9595151699614L218.6670809659091,135.7360199617688L218.79044744318182,141.37823673372625L218.91381392045454,131.15354267356454L219.03718039772727,142.8722196578747L219.28391335227275,141.88048183568756L219.53064630681817,147.11210503883197L219.65401278409092,134.49778025678827L219.77737926136365,147.71958213241308L220.0241122159091,139.76487826730593L220.14747869318182,139.38992512121334L220.39421164772727,132.67770071397538L220.64094460227273,138.2223038002849L220.76431107954545,133.38590506173207L221.0110440340909,135.1798505027546L221.13441051136365,137.96957478043626L221.62787642045456,140.0319495762233L221.75124289772725,146.87285710824656L221.99797585227273,139.82221430051143L222.12134232954546,135.60329582251146L222.24470880681818,148.78028218518014L222.3680752840909,136.32094024505935L222.61480823863636,139.4658100733068L222.73817471590908,142.32174736680466L222.86154119318184,151.00125023745935L222.98490767045453,135.7767944602529L223.47837357954543,152.3544932395453L223.7251065340909,126.91839389153759L223.84847301136364,144.93068593146748L223.97183948863636,151.75357451371386L224.2185724431818,152.02415686799216L224.46530539772726,143.00024032127115L224.71203835227274,139.58296636992603L224.9587713068182,143.62971113296229L225.08213778409092,149.45725147845226L225.14382102272728,132.26541786862074L225.39055397727273,151.7789136618376L225.51392045454546,139.75133093190382L225.6372869318182,143.95163424487694L225.7606534090909,124.74979341204747L225.88401988636363,138.05725154525138L226.00738636363639,146.0952599300072L226.2541193181818,150.3856248687953L226.37748579545456,152.25972813786942L226.74758522727274,151.63443083292808L226.87095170454546,144.260871221195L227.1176846590909,146.82231130427684L227.24105113636364,141.11871748464185L227.6111505681818,142.56708994216754L227.73451704545454,149.90139871661088L227.8578835227273,149.2261518229498L227.98125,141.79499119345567L228.1046164772727,140.61617427505556L228.35134943181816,148.4069189464208L228.8448153409091,142.42194465186915L229.09154829545454,144.33705428091346L229.2149147727273,135.44808111910245L229.33828125,140.59623418725099L229.70838068181817,147.8581028088229L229.8317471590909,143.61473950557414L230.07848011363637,144.81452332693155L230.20184659090907,141.00894763250838L230.57194602272725,135.6781539594522L230.6953125,152.82984240911904L230.81867897727273,141.0263703670353L230.94204545454548,145.46108564245517L231.1887784090909,141.75448167952712L231.43551136363638,149.87205167708456L231.68224431818183,138.91470844391736L231.80561079545456,141.37147962755992L232.05234375,148.04551313573032L232.17571022727273,138.68758355674802L232.29907670454546,146.3287113234401L232.42244318181818,146.17323163547556L232.66917613636363,150.89220909285362L232.97759232954544,139.42841412790588L233.1009588068182,138.2994474290172L233.22432528409092,145.60861579375344L233.34769176136362,145.55452582135334L233.47105823863637,128.644933886244L233.84115767045455,140.99632774305067L233.96452414772727,129.87370039336386L234.21125710227273,125.45127377670727L234.33462357954545,154.7543589898851L234.45799005681818,146.9913383276435L234.5813565340909,143.98482356045864L234.82808948863635,146.58733624964955L234.9514559659091,136.62113462341952L235.0748224431818,129.5926180260722L235.56828835227273,153.78766220819674L235.9383877840909,146.94056066218766L236.06175426136363,142.74366902536715L236.18512073863636,148.10265043051916L236.55522017045453,163.7965263478691L236.6785866477273,151.60097653279084L236.801953125,138.44181038148238L236.9253196022727,151.96960317261986L237.04868607954546,149.6466160664568L237.29541903409088,151.36421283241364L237.41878551136364,153.29171048942956L237.54215198863636,137.9330069117714L237.91225142045454,144.29687599767934L238.0356178977273,146.10311009746513L238.2823508522727,136.12743527337446L238.40571732954547,156.50849050143736L238.5290838068182,147.08239364554177L238.89918323863637,150.59367086796559L239.14591619318182,154.46224664046898L239.26928267045454,146.6338079160778L239.39264914772727,140.71445042209237L239.516015625,145.44263609277553L239.63938210227272,150.19715460366572L240.0094815340909,149.5604960859055L240.3795809659091,151.0569301171927L240.50294744318182,133.4582789684646L240.81136363636364,149.7341272159247L240.93473011363636,146.31513086496855L241.42819602272726,146.9344660174102L241.79829545454544,148.20278146944477L241.9216619318182,140.67983681452463L242.16839488636361,150.62778762949168L242.4151278409091,156.1195594200399L242.66186079545454,147.26357683539393L242.78522727272727,146.65613286488227L242.90859375,146.33576653723142L243.03196022727275,154.29855243128262L243.52542613636362,146.73913927690595L243.64879261363635,149.53677996818445L243.7721590909091,162.9080331331352L244.01889204545452,145.8006964734523L244.14225852272727,151.5449322992936L244.265625,130.94407238240822L244.75909090909093,138.88059168239127L245.00582386363635,140.81107041565704L245.25255681818183,151.4574211498257L245.49928977272728,145.10988173715307L245.62265625,144.63271079875997L245.86938920454546,144.59773283742837L245.99275568181818,141.13915441848806L246.36285511363636,127.24177441850773L246.60958806818184,149.60849141352813L246.73295454545453,151.70852713927164L247.1030539772727,150.96613978384997L247.4731534090909,156.89858089026532L247.96661931818184,141.64086955133828L248.21335227272726,150.349321984686L248.27503551136365,148.68412591458767L248.64513494318183,144.45596610021315L249.13860085227273,149.32846898445862L249.26196732954546,137.9394990333822L249.38533380681818,138.56966542953163L249.5087002840909,151.8105461931555L249.87879971590908,151.865265503875L250.0021661931818,136.04883422958667L250.12553267045456,150.3957605280448L250.37226562499998,150.5560099380091L250.49563210227274,142.70412008045244L250.61899857954546,146.229739591945L250.8657315340909,145.97084968118L250.98909801136364,148.73268433439083L251.3591974431818,140.4681141546462L251.48256392045457,155.05018112307883L251.729296875,149.74227549100763L251.97602982954547,153.8694099435816L252.09939630681816,153.87070174328986L252.22276278409092,159.63395021099134L252.71622869318182,153.34944399946838L253.086328125,141.06138145143635L253.20969460227275,141.6313632304082L253.33306107954544,153.1111566378968L253.45642755681817,147.7733739971882L253.82652698863635,158.48789200827017L254.19662642045455,144.29634602856825L254.31999289772727,143.08728774776685L254.443359375,146.33361353771764L254.56672585227273,156.52147474465895L254.69009232954545,149.0153897320852L254.9368252840909,137.91495483892507L255.30692471590908,147.07411287818107L255.67702414772725,148.44275810755792L255.92375710227273,142.60842753283217" style="fill: none;" fill="none"></path></g></g></g></g></g></g><g transform="translate(58, 177)" clip-path="url(#clip_1)"><clipPath id="clip_1"><rect width="271" height="22"></rect></clipPath><g><g><line x1="0" y1="0" x2="0" y2="5" style="visibility: inherit;" fill="rgb(0, 0, 0)" stroke="rgb(204, 204, 204)" stroke-width="1px"></line><line x1="24.673295454545457" y1="0" x2="24.673295454545457" y2="5" style="visibility: inherit;" fill="rgb(0, 0, 0)" stroke="rgb(204, 204, 204)" stroke-width="1px"></line><line x1="49.346590909090914" y1="0" x2="49.346590909090914" y2="5" style="visibility: inherit;" fill="rgb(0, 0, 0)" stroke="rgb(204, 204, 204)" stroke-width="1px"></line><line x1="74.01988636363636" y1="0" x2="74.01988636363636" y2="5" style="visibility: inherit;" fill="rgb(0, 0, 0)" stroke="rgb(204, 204, 204)" stroke-width="1px"></line><line x1="98.69318181818183" y1="0" x2="98.69318181818183" y2="5" style="visibility: inherit;" fill="rgb(0, 0, 0)" stroke="rgb(204, 204, 204)" stroke-width="1px"></line><line x1="123.36647727272727" y1="0" x2="123.36647727272727" y2="5" style="visibility: inherit;" fill="rgb(0, 0, 0)" stroke="rgb(204, 204, 204)" stroke-width="1px"></line><line x1="148.03977272727272" y1="0" x2="148.03977272727272" y2="5" style="visibility: inherit;" fill="rgb(0, 0, 0)" stroke="rgb(204, 204, 204)" stroke-width="1px"></line><line x1="172.7130681818182" y1="0" x2="172.7130681818182" y2="5" style="visibility: inherit;" fill="rgb(0, 0, 0)" stroke="rgb(204, 204, 204)" stroke-width="1px"></line><line x1="197.38636363636365" y1="0" x2="197.38636363636365" y2="5" style="visibility: inherit;" fill="rgb(0, 0, 0)" stroke="rgb(204, 204, 204)" stroke-width="1px"></line><line x1="222.0596590909091" y1="0" x2="222.0596590909091" y2="5" style="visibility: inherit;" fill="rgb(0, 0, 0)" stroke="rgb(204, 204, 204)" stroke-width="1px"></line><line x1="246.73295454545453" y1="0" x2="246.73295454545453" y2="5" style="visibility: inherit;" fill="rgb(0, 0, 0)" stroke="rgb(204, 204, 204)" stroke-width="1px"></line><line x1="271.40625" y1="0" x2="271.40625" y2="5" style="visibility: inherit;" fill="rgb(0, 0, 0)" stroke="rgb(204, 204, 204)" stroke-width="1px"></line></g><g transform="translate(0, 8)"><text x="0" y="0" dx="0em" dy="0.95em" style="text-anchor: middle; visibility: hidden; font-family: &quot;Helvetica Neue&quot;, sans-serif; font-size: 12px; font-weight: 200;" fill="rgb(50, 49, 63)" stroke="none" stroke-width="1px">-2k</text><text x="24.673295454545457" y="0" dx="0em" dy="0.95em" style="text-anchor: middle; visibility: inherit; font-family: &quot;Helvetica Neue&quot;, sans-serif; font-size: 12px; font-weight: 200;" fill="rgb(50, 49, 63)" stroke="none" stroke-width="1px">0</text><text x="49.346590909090914" y="0" dx="0em" dy="0.95em" style="text-anchor: middle; visibility: inherit; font-family: &quot;Helvetica Neue&quot;, sans-serif; font-size: 12px; font-weight: 200;" fill="rgb(50, 49, 63)" stroke="none" stroke-width="1px">2k</text><text x="74.01988636363636" y="0" dx="0em" dy="0.95em" style="text-anchor: middle; visibility: inherit; font-family: &quot;Helvetica Neue&quot;, sans-serif; font-size: 12px; font-weight: 200;" fill="rgb(50, 49, 63)" stroke="none" stroke-width="1px">4k</text><text x="98.69318181818183" y="0" dx="0em" dy="0.95em" style="text-anchor: middle; visibility: inherit; font-family: &quot;Helvetica Neue&quot;, sans-serif; font-size: 12px; font-weight: 200;" fill="rgb(50, 49, 63)" stroke="none" stroke-width="1px">6k</text><text x="123.36647727272727" y="0" dx="0em" dy="0.95em" style="text-anchor: middle; visibility: inherit; font-family: &quot;Helvetica Neue&quot;, sans-serif; font-size: 12px; font-weight: 200;" fill="rgb(50, 49, 63)" stroke="none" stroke-width="1px">8k</text><text x="148.03977272727272" y="0" dx="0em" dy="0.95em" style="text-anchor: middle; visibility: inherit; font-family: &quot;Helvetica Neue&quot;, sans-serif; font-size: 12px; font-weight: 200;" fill="rgb(50, 49, 63)" stroke="none" stroke-width="1px">10k</text><text x="172.7130681818182" y="0" dx="0em" dy="0.95em" style="text-anchor: middle; visibility: inherit; font-family: &quot;Helvetica Neue&quot;, sans-serif; font-size: 12px; font-weight: 200;" fill="rgb(50, 49, 63)" stroke="none" stroke-width="1px">12k</text><text x="197.38636363636365" y="0" dx="0em" dy="0.95em" style="text-anchor: middle; visibility: inherit; font-family: &quot;Helvetica Neue&quot;, sans-serif; font-size: 12px; font-weight: 200;" fill="rgb(50, 49, 63)" stroke="none" stroke-width="1px">14k</text><text x="222.0596590909091" y="0" dx="0em" dy="0.95em" style="text-anchor: middle; visibility: inherit; font-family: &quot;Helvetica Neue&quot;, sans-serif; font-size: 12px; font-weight: 200;" fill="rgb(50, 49, 63)" stroke="none" stroke-width="1px">16k</text><text x="246.73295454545453" y="0" dx="0em" dy="0.95em" style="text-anchor: middle; visibility: inherit; font-family: &quot;Helvetica Neue&quot;, sans-serif; font-size: 12px; font-weight: 200;" fill="rgb(50, 49, 63)" stroke="none" stroke-width="1px">18k</text><text x="271.40625" y="0" dx="0em" dy="0.95em" style="text-anchor: middle; visibility: hidden; font-family: &quot;Helvetica Neue&quot;, sans-serif; font-size: 12px; font-weight: 200;" fill="rgb(50, 49, 63)" stroke="none" stroke-width="1px">20k</text></g><line x1="0" y1="0" x2="271.40625" y2="0" fill="rgb(0, 0, 0)" stroke="rgb(204, 204, 204)" stroke-width="1px"></line></g></g></g></g></svg>